<svg width="22" height="22" viewBox="0 0 22 22" fill="none" xmlns="http://www.w3.org/2000/svg">
<path fill-rule="evenodd" clip-rule="evenodd" d="M11 22C17.0751 22 22 17.0751 22 11C22 4.92487 17.0751 0 11 0C4.92485 0 0 4.92487 0 11C0 17.0751 4.92485 22 11 22ZM7.09352 4.74963L9.89505 7.55119L7.55116 9.89508L4.74963 7.09352V4.74963H7.09352ZM9.98988 14.354L11.1618 15.526L10.0569 16.6309L8.26546 14.8394L7.09171 16.0132C7.09294 16.0348 7.09352 16.0566 7.09352 16.0784C7.09352 16.7257 6.56881 17.2504 5.92157 17.2504C5.27433 17.2504 4.74963 16.7257 4.74963 16.0784C4.74963 15.4312 5.27433 14.9065 5.92157 14.9065C5.94347 14.9065 5.96518 14.9071 5.98683 14.9083L7.16051 13.7345L5.3691 11.9431L6.47404 10.8382L7.64599 12.0101L14.9065 4.74963H17.2504V7.09352L9.98988 14.354ZM14.9065 16.0784C14.9065 16.7257 15.4312 17.2504 16.0784 17.2504C16.7257 17.2504 17.2504 16.7257 17.2504 16.0784C17.2504 15.4312 16.7257 14.9065 16.0784 14.9065C16.0565 14.9065 16.0348 14.9071 16.0132 14.9083L14.8394 13.7345L16.6309 11.9431L15.526 10.8382L12.6297 13.7345L14.9083 16.0132C14.9071 16.0348 14.9065 16.0566 14.9065 16.0784Z" fill="#E0F4F5"/>
</svg>
