<svg width="22" height="22" viewBox="0 0 22 22" fill="none" xmlns="http://www.w3.org/2000/svg">
<path fill-rule="evenodd" clip-rule="evenodd" d="M11 22C17.0751 22 22 17.0751 22 11C22 4.92487 17.0751 0 11 0C4.92485 0 0 4.92487 0 11C0 17.0751 4.92485 22 11 22ZM12.9532 13.3439C15.3265 13.3439 17.2504 11.42 17.2504 9.04676C17.2504 6.67352 15.3265 4.74963 12.9532 4.74963C10.58 4.74963 8.65611 6.67352 8.65611 9.04676C8.65611 9.40689 8.70043 9.75667 8.78386 10.091L4.74963 14.1252V17.2504H7.87481L8.65611 16.4691V14.9065H10.2187V13.3439H12.9532ZM14.1252 8.65611C14.5567 8.65611 14.9065 8.30631 14.9065 7.87481C14.9065 7.44332 14.5567 7.09352 14.1252 7.09352C13.6937 7.09352 13.3439 7.44332 13.3439 7.87481C13.3439 8.30631 13.6937 8.65611 14.1252 8.65611Z" fill="#E0F4F5"/>
</svg>
