<svg width="22" height="22" viewBox="0 0 22 22" fill="none" xmlns="http://www.w3.org/2000/svg">
<path fill-rule="evenodd" clip-rule="evenodd" d="M11 22C17.0751 22 22 17.0751 22 11C22 4.92487 17.0751 0 11 0C4.92487 0 0 4.92487 0 11C0 17.0751 4.92487 22 11 22ZM8.77003 8.8294C10.4857 6.58362 13.0405 5.27736 14.9444 5.27736H16.2279V6.5608C16.2279 8.46478 14.9216 11.0196 12.6759 12.7352V14.1574C12.6759 15.1851 11.9088 15.7742 11.0976 16.1798L10.0118 16.7226V14.1574L7.3478 11.4934H4.78261L5.32554 10.4077C5.73109 9.59646 6.32011 8.8294 7.3478 8.8294H8.77003ZM13.5639 8.8294C13.5639 8.33895 13.1663 7.94139 12.6759 7.94139C12.1854 7.94139 11.7878 8.33895 11.7878 8.8294C11.7878 9.31984 12.1854 9.7174 12.6759 9.7174C13.1663 9.7174 13.5639 9.31984 13.5639 8.8294ZM6.45979 13.7134L6.9038 13.2694L8.23581 14.6015L7.7918 15.0455C7.07962 15.7576 5.57178 15.9335 5.57178 15.9335C5.57178 15.9335 5.81847 14.3548 6.45979 13.7134Z" fill="#E0F4F5"/>
</svg>
