<svg width="22" height="22" viewBox="0 0 22 22" fill="none" xmlns="http://www.w3.org/2000/svg">
<path fill-rule="evenodd" clip-rule="evenodd" d="M11 22C17.0751 22 22 17.0751 22 11C22 4.92487 17.0751 0 11 0C4.92488 0 0 4.92487 0 11C0 17.0751 4.92488 22 11 22ZM14.4514 6.31485L15.1678 5.60034C15.2489 5.51743 16.03 4.74963 16.9535 4.74963H17.6132V6.0655H16.9535C16.6606 6.0655 16.2543 6.37735 16.1032 6.52802L15.3842 7.24517L16.2371 8.09588C16.2984 8.15693 16.3471 8.22943 16.3803 8.30925C16.4135 8.38907 16.4305 8.47463 16.4305 8.56104C16.4305 8.64745 16.4135 8.73301 16.3803 8.81283C16.3471 8.89264 16.2984 8.96515 16.2371 9.0262L15.3492 9.91178C15.5371 10.4749 15.6332 11.0644 15.6335 11.6579C15.6335 14.7417 13.1175 17.2504 10.0263 17.2504C6.9351 17.2504 4.41979 14.7417 4.41979 11.6579C4.41979 8.5742 6.9351 6.0655 10.0263 6.0655C10.6932 6.06663 11.3543 6.18742 11.9783 6.42209L12.8022 5.60034C12.8634 5.53918 12.9361 5.49067 13.0161 5.45757C13.0962 5.42447 13.182 5.40743 13.2686 5.40743C13.3552 5.40743 13.441 5.42447 13.521 5.45757C13.6011 5.49067 13.6738 5.53918 13.735 5.60034L14.4514 6.31485ZM8.39366 10.0295C8.83034 9.59465 9.40954 9.35516 10.0263 9.35516V8.0393C9.54953 8.03801 9.0772 8.13109 8.63672 8.31314C8.19624 8.4952 7.79635 8.76261 7.4602 9.09988C6.77547 9.78348 6.3988 10.6921 6.3988 11.6579H7.71814C7.7173 11.3555 7.77657 11.0558 7.89253 10.7763C8.00845 10.4968 8.17878 10.243 8.39366 10.0295Z" fill="#E0F4F5"/>
</svg>
