<svg width="22" height="22" viewBox="0 0 22 22" fill="none" xmlns="http://www.w3.org/2000/svg">
<path fill-rule="evenodd" clip-rule="evenodd" d="M11 22C17.0751 22 22 17.0751 22 11C22 4.92487 17.0751 0 11 0C4.92488 0 0 4.92487 0 11C0 17.0751 4.92488 22 11 22ZM10.6088 16.0734C9.45235 15.9854 8.40397 15.511 7.59258 14.7788L6.76152 15.6101C7.78717 16.5536 9.12844 17.1591 10.6089 17.2504L10.6088 16.0734ZM15.2857 15.4478L14.5158 14.6782C13.6905 15.4673 12.6001 15.9814 11.3916 16.0733L11.3915 17.2504C12.9277 17.1556 14.314 16.507 15.3532 15.5019C15.3292 15.4867 15.3066 15.4687 15.2857 15.4478ZM15.3054 11C15.3054 8.6222 13.3778 6.69461 11 6.69461C8.62219 6.69461 6.69462 8.6222 6.69462 11C6.69462 13.3778 8.62219 15.3054 11 15.3054C13.3778 15.3054 15.3054 13.3778 15.3054 11ZM7.05316 14.2115C6.41684 13.4304 6.00773 12.4569 5.92666 11.3916L4.74966 11.3915C4.83534 12.7807 5.37396 14.0474 6.21961 15.0456L7.05316 14.2115ZM15.8732 14.9331C16.6655 13.9529 17.1679 12.729 17.2503 11.3915L16.0733 11.3916C15.9963 12.4043 15.6227 13.3341 15.0394 14.0945L15.8392 14.8943C15.8516 14.9067 15.8629 14.9196 15.8732 14.9331ZM8.78592 8.78591C9.24447 8.32735 9.98792 8.32735 10.4465 8.78591C10.8079 9.14733 10.8845 9.68573 10.6762 10.1221L11.0003 10.4462L11.324 10.1225C11.1155 9.68604 11.192 9.14743 11.5535 8.78591C12.0121 8.32735 12.7555 8.32735 13.2141 8.78591C13.6726 9.24446 13.6726 9.98792 13.2141 10.4465C12.8527 10.8079 12.3143 10.8845 11.8779 10.6762L11.5538 10.9997L11.8779 11.3238C12.3143 11.1155 12.8527 11.1921 13.2141 11.5535C13.6726 12.0121 13.6726 12.7555 13.2141 13.2141C12.7555 13.6726 12.0121 13.6726 11.5535 13.2141C11.192 12.8526 11.1155 12.314 11.324 11.8775L11.0003 11.5532L10.6762 11.8779C10.8845 12.3143 10.8079 12.8527 10.4465 13.2141C9.98792 13.6726 9.24447 13.6726 8.78592 13.2141C8.32737 12.7555 8.32737 12.0121 8.78592 11.5535C9.14742 11.192 9.68604 11.1155 10.1225 11.324L10.4468 10.9997L10.1225 10.676C9.68604 10.8845 9.14742 10.808 8.78592 10.4465C8.32737 9.98792 8.32737 9.24446 8.78592 8.78591ZM9.89296 12.107C9.74009 11.9542 9.49229 11.9542 9.33942 12.107C9.18658 12.2599 9.18658 12.5077 9.33942 12.6606C9.49229 12.8134 9.74009 12.8134 9.89296 12.6606C10.0458 12.5077 10.0458 12.2599 9.89296 12.107ZM12.6606 12.107C12.5077 11.9542 12.2599 11.9542 12.107 12.107C11.9542 12.2599 11.9542 12.5077 12.107 12.6606C12.2599 12.8134 12.5077 12.8134 12.6606 12.6606C12.8134 12.5077 12.8134 12.2599 12.6606 12.107ZM17.2504 10.6089C17.1624 9.18093 16.5959 7.88245 15.7092 6.87182L14.8769 7.70451C15.5532 8.49936 15.9894 9.50484 16.0734 10.6088L17.2504 10.6089ZM7.05316 7.7885L6.21961 6.95437C5.37386 7.95272 4.83524 9.21951 4.74963 10.6089L5.92663 10.6088C6.00764 9.54337 6.41674 8.56968 7.05316 7.7885ZM9.89296 9.33943C9.74009 9.18658 9.49229 9.18658 9.33942 9.33943C9.18658 9.49228 9.18658 9.7401 9.33942 9.89295C9.49229 10.0458 9.74009 10.0458 9.89296 9.89295C10.0458 9.7401 10.0458 9.49228 9.89296 9.33943ZM12.6606 9.33943C12.5077 9.18658 12.2599 9.18658 12.107 9.33943C11.9542 9.49228 11.9542 9.7401 12.107 9.89295C12.2599 10.0458 12.5077 10.0458 12.6606 9.89295C12.8134 9.7401 12.8134 9.49228 12.6606 9.33943ZM10.6088 5.92662L10.6089 4.74963C9.12844 4.84085 7.78717 5.44643 6.76152 6.38987L7.59297 7.22081C8.40432 6.48889 9.45255 6.01453 10.6088 5.92662ZM15.1579 6.31698C14.1431 5.41538 12.8333 4.83859 11.3915 4.74965L11.3916 5.92666C12.5094 6.01173 13.5262 6.45795 14.3256 7.14888L15.1579 6.31698Z" fill="#E0F4F5"/>
</svg>
