<svg width="18" height="18" viewBox="0 0 18 18" fill="none" xmlns="http://www.w3.org/2000/svg">
<g clip-path="url(#clip0_471_23709)">
<path fill-rule="evenodd" clip-rule="evenodd" d="M12.4889 3.19569C12.3844 3.2166 12.2883 3.26798 12.213 3.34336L6.34645 9.20988L7.15505 10.0185L11.4002 5.77334C11.5863 5.58727 11.8879 5.58726 12.074 5.77334C12.2601 5.95941 12.2601 6.2611 12.074 6.44717L7.82888 10.6923L8.63748 11.5009L14.504 5.63439C14.5794 5.55901 14.6308 5.463 14.6517 5.35846L15.1394 2.91975C15.1646 2.7938 15.0536 2.68276 14.9276 2.70795L12.4889 3.19569Z" fill="#E0F4F5"/>
<path d="M3.67358 8.57349C3.95476 8.29231 4.41064 8.29231 4.69182 8.57349L9.27387 13.1555C9.55505 13.4367 9.55505 13.8926 9.27387 14.1738L8.84959 14.598C8.49786 14.9498 7.90392 14.8474 7.69027 14.3982L6.74309 12.4067L5.37557 11.0392L3.46316 10.1525C3.00916 9.94204 2.90303 9.34404 3.25688 8.99019L3.67358 8.57349Z" fill="#E0F4F5"/>
<path d="M4.94638 14.9374C4.38402 15.4998 3.47226 15.4998 2.90991 14.9374C2.34755 14.3751 2.34755 13.4633 2.90991 12.901C3.47226 12.3386 4.38402 12.3386 4.94638 12.901C5.50873 13.4633 5.50873 14.3751 4.94638 14.9374Z" fill="#E0F4F5"/>
<path d="M5.45549 11.1191L6.72829 12.3919L5.07366 14.0465L3.80086 12.7737L5.45549 11.1191Z" fill="#E0F4F5"/>
<path fill-rule="evenodd" clip-rule="evenodd" d="M3.34803 5.35857C3.36894 5.46311 3.42032 5.55912 3.49571 5.63451L9.36222 11.501L10.1708 10.6924L5.92568 6.44729C5.73961 6.26121 5.73961 5.95953 5.92568 5.77346C6.11176 5.58738 6.41344 5.58738 6.59951 5.77346L10.8446 10.0186L11.6532 9.20999L5.78673 3.34348C5.71135 3.2681 5.61534 3.21671 5.5108 3.19581L3.0721 2.70807C2.94615 2.68288 2.8351 2.79392 2.86029 2.91987L3.34803 5.35857Z" fill="#E0F4F5"/>
<path d="M8.72583 14.1739C8.44465 13.8927 8.44465 13.4368 8.72583 13.1557L13.3079 8.5736C13.5891 8.29243 14.0449 8.29243 14.3261 8.5736L14.7504 8.99788C15.1021 9.34961 14.9997 9.94356 14.5505 10.1572L12.559 11.1044L11.1915 12.4719L10.3049 14.3843C10.0944 14.8383 9.49638 14.9444 9.14253 14.5906L8.72583 14.1739Z" fill="#E0F4F5"/>
<path d="M15.0898 12.9011C15.6521 13.4635 15.6521 14.3752 15.0898 14.9376C14.5274 15.4999 13.6157 15.4999 13.0533 14.9376C12.491 14.3752 12.491 13.4635 13.0533 12.9011C13.6157 12.3387 14.5274 12.3387 15.0898 12.9011Z" fill="#E0F4F5"/>
<path d="M11.2714 12.392L12.5442 11.1192L14.1988 12.7738L12.926 14.0466L11.2714 12.392Z" fill="#E0F4F5"/>
</g>
<defs>
<clipPath id="clip0_471_23709">
<rect width="18" height="18" fill="white"/>
</clipPath>
</defs>
</svg>
