<svg width="16" height="16" viewBox="0 0 16 16" fill="none" xmlns="http://www.w3.org/2000/svg">
<path d="M8.00098 0C8.32313 6.85812e-08 8.59212 0.228459 8.6543 0.532227L8.66797 0.666992V1.70215C9.27081 1.76602 9.86259 1.9156 10.4248 2.14844L10.71 2.27441C11.3664 2.58495 11.9649 3.00692 12.4795 3.52148L12.6943 3.74707C13.182 4.28523 13.574 4.90377 13.8525 5.57617L13.9648 5.86621C14.1721 6.44563 14.2928 7.05246 14.3252 7.66699H15.334L15.4688 7.68066C15.7725 7.74284 16.001 8.01183 16.001 8.33398C16.001 8.65614 15.7725 8.92512 15.4688 8.9873L15.334 9.00098H14.2549C14.1933 9.38589 14.0965 9.76484 13.9648 10.1328L13.8525 10.4229C13.574 11.0952 13.182 11.7138 12.6943 12.252L12.4795 12.4775C11.9649 12.9921 11.3664 13.4141 10.71 13.7246L10.4248 13.8506C9.86259 14.0834 9.27078 14.232 8.66797 14.2959V15.334C8.66797 15.7022 8.36917 16.001 8.00098 16.001C7.63279 16.001 7.33398 15.7022 7.33398 15.334V14.2959C6.83429 14.2429 6.34199 14.1324 5.86816 13.9629L5.57812 13.8506C4.90572 13.5721 4.28718 13.1801 3.74902 12.6924L3.52344 12.4775C3.00887 11.9629 2.5869 11.3645 2.27637 10.708L2.15039 10.4229C1.96073 9.96489 1.82708 9.48717 1.74902 9H0.666992C0.298802 9 0 8.7012 0 8.33301C0 7.96482 0.298802 7.66602 0.666992 7.66602H1.67773C1.7157 6.94845 1.87482 6.24149 2.15039 5.57617L2.27637 5.29102C2.58692 4.6346 3.00886 4.03606 3.52344 3.52148L3.74902 3.30664C4.28715 2.81902 4.90579 2.42693 5.57812 2.14844L5.86816 2.03613C6.342 1.86662 6.83425 1.75514 7.33398 1.70215V0.666992L7.34766 0.532227C7.40984 0.228459 7.67882 1.40817e-08 8.00098 0ZM8.66797 4C8.66797 4.36819 8.36917 4.66699 8.00098 4.66699C7.63279 4.66699 7.33398 4.36819 7.33398 4V3.04395C6.98773 3.09053 6.647 3.17407 6.31738 3.29199L6.08789 3.37988C5.55714 3.59974 5.06933 3.90998 4.64453 4.29492L4.46582 4.46387C4.05954 4.87015 3.72663 5.34305 3.48145 5.86133L3.38184 6.08594C3.17327 6.58947 3.05079 7.12355 3.01465 7.66602H4L4.13477 7.67969C4.43853 7.74187 4.66699 8.01086 4.66699 8.33301C4.66699 8.65516 4.43853 8.92415 4.13477 8.98633L4 9H3.10352C3.16704 9.31179 3.2595 9.61771 3.38184 9.91309L3.48145 10.1377C3.7266 10.656 4.05954 11.1288 4.46582 11.5352L4.64453 11.7051C5.06923 12.0899 5.55732 12.3993 6.08789 12.6191L6.31738 12.708C6.64692 12.8259 6.98776 12.9085 7.33398 12.9551V12.001L7.34766 11.8662C7.40984 11.5624 7.67882 11.334 8.00098 11.334C8.32313 11.334 8.59212 11.5624 8.6543 11.8662L8.66797 12.001V12.9541C9.09548 12.8968 9.51479 12.7849 9.91504 12.6191L10.1396 12.5195C10.658 12.2743 11.1308 11.9415 11.5371 11.5352L11.707 11.3574C12.092 10.9326 12.4012 10.4439 12.6211 9.91309L12.71 9.68359C12.7897 9.46065 12.8521 9.23235 12.8994 9.00098H12.001C11.6328 9.00098 11.334 8.70217 11.334 8.33398C11.334 7.96579 11.6328 7.66699 12.001 7.66699H12.9873C12.9566 7.20589 12.8657 6.75079 12.71 6.31543L12.6211 6.08594C12.4013 5.55537 12.0918 5.06727 11.707 4.64258L11.5371 4.46387C11.1308 4.05759 10.658 3.72465 10.1396 3.47949L9.91504 3.37988C9.51478 3.2141 9.09553 3.10129 8.66797 3.04395V4ZM8.00098 7C8.55326 7 9.00098 7.44772 9.00098 8C9.00098 8.55229 8.55326 9 8.00098 9C7.44869 9 7.00098 8.55229 7.00098 8C7.00098 7.44772 7.44869 7 8.00098 7Z" fill="#071B28" fill-opacity="0.5"/>
</svg>
