<svg width="23" height="18" viewBox="0 0 23 18" fill="none" xmlns="http://www.w3.org/2000/svg">
<path d="M9.1283 2.25658C14.2299 -0.722825 18.9267 -0.84398 23 2.44437C17.4623 1.33278 14.4582 2.45732 11.2758 6.31405L11.4398 6.54736L10.8842 7.26031C8.41083 6.39779 7.71735 6.79687 7.51936 8.98914C6.12237 9.46823 5.80373 10.0211 5.89653 11.4424L4.9373 12.0818C4.61219 12.553 4.63861 12.8349 4.63444 13.6564L4.48385 13.732C4.55266 13.8064 4.619 13.8847 4.67866 13.9696C5.40407 15.0017 5.1331 16.4111 4.07318 17.1176C3.57154 17.4519 2.98332 17.5665 2.42571 17.4876L0.818181 18L0.602907 17.6938C0.814183 17.1151 0.868061 16.7762 0.716372 16.3322C0.609441 16.1416 0.534916 15.9408 0.488712 15.7367L0.467388 15.7475L0.170977 14.5734L0 13.8297C0.278495 13.6606 0.353826 13.5274 0.233439 13.159L0.593642 12.9189C0.415102 12.5683 0.501602 12.4531 0.908842 12.3662C0.728365 11.9774 0.811973 11.8274 1.14228 11.6955C1.01097 11.3825 1.04261 11.2295 1.37626 11.0256C2.17085 8.62687 2.99491 7.48751 4.81623 5.64462C6.53941 4.89952 7.27032 4.28425 8.00373 2.66238L8.64133 2.06608L9.1283 2.25658ZM1.77423 13.8474C0.979266 14.3773 0.775264 15.4346 1.3194 16.2086C1.86358 16.9827 2.94963 17.1801 3.74461 16.6502C4.53943 16.1203 4.74279 15.0635 4.19865 14.2895C3.65449 13.5156 2.56917 13.3177 1.77423 13.8474Z" fill="#071B28" fill-opacity="0.5"/>
</svg>
