<svg width="16" height="16" viewBox="0 0 16 16" fill="none" xmlns="http://www.w3.org/2000/svg">
<path d="M14.4414 13.1133C14.714 13.1133 14.9762 13.2199 15.1709 13.4102L13.4258 15.1553C13.2356 14.9606 13.129 14.6992 13.1289 14.4268C13.1289 14.1848 13.2132 13.9512 13.3652 13.7656L13.4346 13.6895L13.7041 13.4189C13.8996 13.2235 14.165 13.1134 14.4414 13.1133ZM13.9922 12.5879C13.7943 12.6444 13.6094 12.7374 13.4473 12.8623L13.2881 13.002L13.0176 13.2725C12.8214 13.4679 12.6795 13.7105 12.6035 13.9766L10.1562 11.5303L11.5459 10.1416L13.9922 12.5879ZM11.0186 8.79004C11.1304 8.79343 11.2363 8.83984 11.3154 8.91895C11.3945 8.99805 11.4409 9.10401 11.4443 9.21582C11.4469 9.29969 11.425 9.38192 11.3828 9.45312L11.334 9.51953L9.53613 11.3184C9.4524 11.3926 9.34327 11.4321 9.23145 11.4287C9.11959 11.4253 9.01272 11.3789 8.93359 11.2998C8.85474 11.2207 8.80903 11.1146 8.80566 11.0029C8.80231 10.8915 8.84132 10.7829 8.91504 10.6992L10.7148 8.90039L10.7139 8.89941C10.7976 8.82547 10.9069 8.78667 11.0186 8.79004ZM0.826172 0.848633C2.11428 1.65052 3.06681 1.94726 3.69922 2.04199C4.01701 2.08956 4.25456 2.08647 4.41211 2.07129C4.49073 2.0637 4.54954 2.05266 4.58887 2.04395C4.60822 2.03966 4.6229 2.03602 4.63281 2.0332C4.63572 2.03237 4.63855 2.0309 4.64062 2.03027C5.24033 2.72 5.90794 3.59812 6.77832 4.69141C7.64937 5.78552 8.72277 7.09513 10.1338 8.64453L9.68262 9.09473L6.85547 6.59668L3.80371 3.90039L3.78711 3.91699L6.4834 6.96875L8.98145 9.79688L8.68652 10.0918C4.86545 7.33733 2.90005 5.02024 1.88965 3.39258C1.38413 2.57821 1.11755 1.93613 0.977539 1.49805C0.907538 1.279 0.86953 1.11027 0.848633 0.99707C0.83823 0.940668 0.831573 0.897745 0.828125 0.869141C0.827172 0.861225 0.826762 0.854359 0.826172 0.848633Z" fill="#071B28" fill-opacity="0.5" stroke="#071B28" stroke-width="0.0234375"/>
</svg>
