<svg width="14" height="16" viewBox="0 0 14 16" fill="none" xmlns="http://www.w3.org/2000/svg">
<path fill-rule="evenodd" clip-rule="evenodd" d="M3.09161 15.0849C3.98271 15.5385 10.9362 15.4963 11 15V13C11 12.4477 11.4477 12 12 12H12.5C13.0523 12 13.5 11.5523 13.5 11V7C13.5 3.41015 10.5899 0.5 7 0.5C3.41015 0.5 0.5 3.41015 0.5 7V11C0.5 11.5523 0.947715 12 1.5 12H2C2.55228 12 3 12.4477 3 13V14.8699C3 14.9563 3.01465 15.0458 3.09161 15.0849ZM4.25 11C2.75 11.5 2 10.1046 2 9C2 7.89543 3.00736 7 4.25 7C5.49264 7 6.5 7.89543 6.5 9C6.41321 9.97908 5.75 10.5 4.25 11ZM9.75 11C11.25 11.5 12 10.1046 12 9C12 7.89543 10.9926 7 9.75 7C8.50736 7 7.5 7.89543 7.5 9C7.58679 9.97908 8.25 10.5 9.75 11ZM7.86228 11.947C7.21746 11.7087 6.80754 11.7058 6.137 11.9485C6.07085 11.9724 6.00566 11.9244 6.0175 11.8551C6.04247 11.709 6.10304 11.4409 6.25 11C6.45568 10.383 6.83059 10.1043 6.95704 10.025C6.9837 10.0082 7.0163 10.0082 7.04296 10.025C7.16941 10.1043 7.54432 10.383 7.75 11C7.89655 11.4396 7.95719 11.7075 7.98229 11.8539C7.99423 11.9235 7.92859 11.9715 7.86228 11.947Z" fill="#071B28" fill-opacity="0.5"/>
</svg>
