<svg width="187" height="48" viewBox="0 0 187 48" fill="none" xmlns="http://www.w3.org/2000/svg">
<g filter="url(#filter0_d_108_306)">
<path fill-rule="evenodd" clip-rule="evenodd" d="M24.5409 0.0401402C24.5409 0.0622127 24.4597 0.104737 24.3605 0.134675C24.0283 0.234979 23.3536 0.963799 22.8301 1.78773C22.5323 2.25649 22.2455 2.69746 22.2102 2.74118C22.0778 2.90465 21.56 3.73735 21.56 3.78679C21.56 3.81973 21.5151 3.88757 21.4603 3.93753C21.4054 3.98749 21.3255 4.09494 21.2828 4.17637C21.2401 4.25779 21.0796 4.51522 20.9263 4.74844C20.3441 5.63363 20.2371 5.80325 20.205 5.89177C20.1868 5.94193 20.1116 6.05338 20.0379 6.13953C19.9642 6.22563 19.9031 6.32216 19.902 6.35406C19.901 6.3859 19.8371 6.48625 19.7601 6.57702C19.6831 6.66779 19.6201 6.76709 19.6201 6.79765C19.6201 6.82821 19.5866 6.88122 19.5456 6.91545C19.5047 6.94968 19.4282 7.06257 19.3757 7.16635C19.3231 7.27014 19.2598 7.37883 19.235 7.40791C19.1327 7.52762 18.8629 7.97364 18.8617 8.02508C18.861 8.05559 18.7971 8.14312 18.7197 8.21958C18.6424 8.29605 18.5791 8.37896 18.5791 8.40384C18.5791 8.45032 18.2292 8.98821 18.0606 9.20083C18.0086 9.26638 17.9656 9.34418 17.9651 9.37379C17.9645 9.40335 17.9321 9.45421 17.8931 9.48687C17.854 9.51952 17.8221 9.57854 17.8221 9.61802C17.8221 9.65754 17.7476 9.77295 17.6565 9.87454C17.5654 9.97609 17.4909 10.0917 17.4909 10.1315C17.4909 10.1712 17.3258 10.3709 17.1242 10.5753C16.771 10.9332 16.4289 11.1554 16.2311 11.1554C16.1792 11.1554 16.0955 11.1869 16.045 11.2254C15.9945 11.2639 15.8674 11.2961 15.7626 11.2969C15.6577 11.2978 15.53 11.3274 15.4787 11.3628C15.4274 11.3983 15.2828 11.4409 15.1574 11.4577C15.0321 11.4744 14.8836 11.5206 14.8275 11.5602C14.7714 11.5998 14.6583 11.6321 14.5762 11.6321C14.4942 11.6321 14.4005 11.6643 14.3681 11.7036C14.3294 11.7506 14.2238 11.7752 14.0605 11.7752C13.8972 11.7752 13.7917 11.7997 13.753 11.8467C13.7157 11.8919 13.6113 11.9182 13.4691 11.9182C13.3268 11.9182 13.2224 11.9445 13.1852 11.9897C13.1479 12.0349 13.0436 12.0612 12.9013 12.0612C12.759 12.0612 12.6546 12.0875 12.6174 12.1327C12.5833 12.174 12.4801 12.2042 12.3727 12.2042C12.2705 12.2042 12.1294 12.2334 12.0591 12.2691C11.9888 12.3048 11.8386 12.3483 11.7253 12.3658C11.6119 12.3833 11.4586 12.4292 11.3846 12.4678C11.3105 12.5064 11.1876 12.5379 11.1114 12.5379C11.0353 12.5379 10.9464 12.5701 10.914 12.6094C10.8768 12.6546 10.7724 12.6809 10.6301 12.6809C10.4879 12.6809 10.3835 12.7073 10.3463 12.7524C10.3092 12.7974 10.205 12.824 10.0656 12.824C9.94365 12.824 9.80255 12.8555 9.75202 12.8939C9.70153 12.9325 9.57378 12.9646 9.46813 12.9655C9.36252 12.9663 9.23477 12.9985 9.18424 13.037C9.13375 13.0755 9.01788 13.1078 8.92679 13.1088C8.83571 13.1098 8.7002 13.1427 8.62568 13.1818C8.55111 13.221 8.42672 13.253 8.34922 13.253C8.27176 13.253 8.15418 13.2959 8.08803 13.3484C8.00613 13.4132 7.89608 13.4437 7.74334 13.4437C7.60159 13.4437 7.49721 13.4701 7.46002 13.5152C7.42278 13.5604 7.3184 13.5867 7.17613 13.5867C7.03385 13.5867 6.92947 13.613 6.89223 13.6582C6.855 13.7034 6.75062 13.7297 6.60834 13.7297C6.46606 13.7297 6.36169 13.7561 6.32445 13.8012C6.29204 13.8406 6.19769 13.8728 6.11479 13.8728C6.03185 13.8728 5.92269 13.9043 5.87216 13.9427C5.82168 13.9813 5.71266 14.0134 5.62991 14.0142C5.5472 14.0151 5.45129 14.0442 5.4168 14.079C5.38231 14.1137 5.27991 14.1571 5.18935 14.1754C5.09874 14.1936 4.94573 14.2724 4.8493 14.3505C4.75287 14.4286 4.65218 14.4925 4.6255 14.4925C4.54468 14.4925 4.24929 14.7774 4.21466 14.8888C4.19682 14.9461 4.1426 15.0442 4.0941 15.1068C3.96559 15.2726 3.96961 15.8156 4.10063 15.9834C4.15267 16.05 4.19526 16.1556 4.19526 16.2181C4.19526 16.2805 4.25828 16.4058 4.33526 16.4966C4.41229 16.5873 4.47617 16.6979 4.47721 16.7422C4.4783 16.7866 4.50073 16.8363 4.52713 16.8527C4.55353 16.8692 4.61561 16.9616 4.66505 17.0582C4.7145 17.1547 4.86326 17.3443 4.9956 17.4796C5.12794 17.6149 5.2362 17.7392 5.2362 17.7558C5.2362 17.7857 5.65659 18.3077 5.7842 18.4362C5.8203 18.4726 5.94976 18.6353 6.07183 18.7976C6.19391 18.9601 6.40181 19.2148 6.53387 19.3637C6.79178 19.6545 7.12413 20.0643 7.45041 20.4938C7.56222 20.641 7.74476 20.858 7.85609 20.976C7.96738 21.094 8.09631 21.252 8.14249 21.3272C8.18872 21.4024 8.3362 21.5879 8.4702 21.7394C8.60425 21.8909 8.78258 22.1083 8.86651 22.2224C8.95045 22.3366 9.09949 22.5169 9.19772 22.623C9.29595 22.7292 9.43439 22.9008 9.50546 23.0044C9.57648 23.108 9.75382 23.3215 9.8995 23.4788C10.0452 23.6361 10.193 23.8185 10.2279 23.884C10.2628 23.9496 10.3953 24.1212 10.5223 24.2654C10.6493 24.4096 10.8511 24.6563 10.9708 24.8136C11.0905 24.971 11.2651 25.1736 11.3588 25.264C11.4525 25.3543 11.5291 25.4478 11.5291 25.4716C11.5291 25.4955 11.593 25.5963 11.6711 25.6956C11.7492 25.7949 11.813 25.908 11.813 25.9469C11.813 25.9858 11.845 26.0443 11.884 26.077C11.9438 26.127 11.955 26.3345 11.955 27.3969C11.955 28.1614 11.936 28.6932 11.9068 28.7483C11.8803 28.7982 11.8476 29.3385 11.8341 29.9489C11.8206 30.5593 11.7885 31.248 11.7626 31.4794C11.7368 31.7107 11.6967 32.3972 11.6736 33.0049C11.6505 33.6126 11.619 34.142 11.6037 34.1813C11.5884 34.2207 11.5554 34.757 11.5304 35.3731C11.5054 35.9893 11.462 36.8032 11.4338 37.1817C11.374 37.9837 11.4578 38.8291 11.6372 39.2346C11.7286 39.4413 12.0356 39.8067 12.1179 39.8067C12.1514 39.8067 12.2329 39.8496 12.2991 39.9021C12.3968 39.9795 12.4911 39.9974 12.8007 39.9974C13.0208 39.9974 13.2476 39.9693 13.3373 39.9309C13.4228 39.8944 13.6737 39.8157 13.8949 39.7561C14.2942 39.6484 14.5127 39.5688 14.7539 39.4431C14.8229 39.4071 14.9134 39.3777 14.9549 39.3777C14.9963 39.3777 15.1654 39.3133 15.3306 39.2346C15.4959 39.156 15.648 39.0916 15.6687 39.0916C15.7223 39.0916 16.5494 38.7672 16.6625 38.7018C16.7144 38.6718 16.8208 38.6307 16.8991 38.6105C17.1362 38.5491 17.3961 38.4435 17.4545 38.3845C17.4849 38.3539 17.5454 38.3289 17.589 38.3289C17.6608 38.3289 17.8688 38.2486 18.2787 38.0627C18.3607 38.0256 18.448 37.9951 18.4725 37.9951C18.5182 37.9951 18.7637 37.8879 18.9337 37.7938C18.9855 37.765 19.092 37.7249 19.1702 37.7047C19.4074 37.6434 19.6672 37.5377 19.7257 37.4788C19.756 37.4482 19.8186 37.4231 19.8645 37.4231C19.9104 37.4231 20.018 37.3924 20.1034 37.3549C20.1889 37.3174 20.3866 37.2379 20.5427 37.1783C20.6989 37.1186 20.8526 37.0507 20.8844 37.0272C20.9162 37.0038 21.012 36.9667 21.0973 36.9449C21.3444 36.8816 21.6057 36.7764 21.6656 36.716C21.696 36.6854 21.7585 36.6603 21.8044 36.6603C21.8865 36.6603 22.1151 36.5732 22.38 36.4411C22.4537 36.4044 22.5356 36.3743 22.5621 36.3743C22.6172 36.3743 22.8887 36.2609 23.0977 36.1505C23.1758 36.1093 23.3036 36.0588 23.3816 36.0383C23.4597 36.0179 23.6407 35.9555 23.7838 35.8998C24.6786 35.5513 24.8458 35.5397 25.5557 35.7765C25.8276 35.8672 26.0885 35.9622 26.1353 35.9877C26.2798 36.0663 27.0711 36.3743 27.1286 36.3743C27.1584 36.3743 27.2538 36.4102 27.3405 36.4541C27.4271 36.4979 27.5546 36.5623 27.6236 36.5971C27.6927 36.6319 27.7853 36.6603 27.8293 36.6603C27.8733 36.6603 27.9658 36.6902 28.0349 36.7267C28.104 36.7632 28.2457 36.8258 28.3497 36.8659C28.4538 36.906 28.7223 37.0155 28.9463 37.1094C29.1703 37.2033 29.3762 37.2801 29.4038 37.2801C29.4314 37.2801 29.5143 37.3105 29.5879 37.3477C29.6616 37.385 29.8177 37.4513 29.9348 37.4952C30.0519 37.539 30.2116 37.6024 30.2897 37.636C30.3677 37.6696 30.5274 37.7341 30.6445 37.7794C30.7616 37.8247 30.9274 37.8917 31.0128 37.9285C31.0983 37.9651 31.1918 37.9951 31.2206 37.9951C31.2494 37.9951 31.3604 38.0361 31.4674 38.0862C31.8415 38.2612 32.0078 38.3289 32.0639 38.3289C32.0949 38.3289 32.1769 38.3583 32.246 38.3943C32.4922 38.5226 32.731 38.6149 32.8168 38.6149C32.8648 38.6149 32.9286 38.6447 32.9586 38.6811C32.9886 38.7175 33.0605 38.7587 33.1182 38.7725C33.2581 38.8061 33.6146 38.9358 33.791 39.0173C33.8691 39.0533 34.0288 39.1193 34.1459 39.1639C34.263 39.2086 34.412 39.2681 34.4771 39.2962C34.9126 39.4845 36.0231 39.8544 36.1529 39.8544C36.2101 39.8544 36.2983 39.8859 36.3488 39.9244C36.48 40.0244 37.2339 40.0255 37.316 39.9259C37.3484 39.8866 37.4079 39.8544 37.4482 39.8544C37.5407 39.8544 37.8863 39.4917 37.9724 39.3044C38.008 39.2267 38.0637 39.1095 38.0961 39.0439C38.1788 38.8766 38.237 38.3022 38.2339 37.6853C38.2301 36.9323 38.1312 34.9596 38.0742 34.5019C38.0476 34.2876 38.0254 33.8865 38.025 33.6105C38.0246 33.3345 38.0019 32.862 37.9747 32.5605C37.9151 31.9002 37.8048 29.6808 37.7342 27.72L37.6827 26.2881L37.8127 26.0296C37.9686 25.7196 38.1194 25.5184 39.1759 24.2111C39.5449 23.7545 39.5773 23.7155 39.8822 23.3596C40.0057 23.2154 40.107 23.075 40.1072 23.0475C40.1074 23.0201 40.1941 22.9128 40.2998 22.8091C40.4055 22.7055 40.5803 22.5027 40.6884 22.3585C40.7964 22.2143 40.9828 21.989 41.1026 21.8579C41.2224 21.7268 41.3605 21.5552 41.4095 21.4766C41.4585 21.3979 41.5962 21.2263 41.7156 21.0952C41.835 20.9641 41.9956 20.771 42.0725 20.6661C42.1494 20.5612 42.3509 20.3126 42.5203 20.1137C42.9785 19.5754 43.5353 18.8781 43.5574 18.8148C43.568 18.7842 43.6701 18.6635 43.7842 18.5466C43.8983 18.4297 44.0599 18.2401 44.1433 18.1252C44.2267 18.0104 44.3958 17.8057 44.5188 17.6704C44.6419 17.5351 44.7431 17.3953 44.7436 17.3599C44.7441 17.3244 44.835 17.1939 44.9457 17.07C45.0563 16.946 45.2081 16.7225 45.283 16.5733C45.358 16.4241 45.4378 16.2905 45.4604 16.2764C45.4831 16.2623 45.5016 16.1689 45.5016 16.0687C45.5016 15.9651 45.5321 15.8611 45.5725 15.8273C45.653 15.7601 45.6746 15.2553 45.5971 15.2553C45.5716 15.2553 45.5367 15.199 45.5195 15.1302C45.4782 14.9642 45.2622 14.6355 45.1944 14.6355C45.1649 14.6355 45.0796 14.5712 45.0048 14.4925C44.9299 14.4138 44.8388 14.3495 44.8023 14.3495C44.7657 14.3495 44.6816 14.3066 44.6155 14.2541C44.5493 14.2017 44.4581 14.1588 44.4127 14.1588C44.3674 14.1588 44.3038 14.1266 44.2714 14.0873C44.239 14.048 44.1446 14.0158 44.0617 14.0158C43.9788 14.0158 43.8696 13.9843 43.8191 13.9458C43.7686 13.9073 43.6634 13.8744 43.5853 13.8728C43.5072 13.8711 43.402 13.8382 43.3515 13.7997C43.301 13.7612 43.1705 13.7297 43.0616 13.7297C42.9432 13.7297 42.8398 13.7009 42.8046 13.6582C42.7675 13.6133 42.6633 13.5867 42.524 13.5867C42.402 13.5867 42.2609 13.5552 42.2104 13.5167C42.1599 13.4782 42.0334 13.4459 41.9293 13.4449C41.8223 13.4439 41.6782 13.4019 41.598 13.3484C41.5178 13.2948 41.3738 13.2528 41.2668 13.2518C41.1627 13.2508 41.0362 13.2185 40.9857 13.18C40.9352 13.1415 40.8275 13.11 40.7464 13.11C40.6652 13.11 40.5575 13.0785 40.507 13.04C40.4565 13.0015 40.3288 12.9693 40.2231 12.9685C40.1175 12.9676 39.9897 12.9355 39.9392 12.897C39.8887 12.8585 39.7489 12.8263 39.6284 12.8255C39.4931 12.8245 39.387 12.7966 39.3506 12.7524C39.3133 12.7073 39.209 12.6809 39.0667 12.6809C38.9244 12.6809 38.82 12.6546 38.7828 12.6094C38.7456 12.5643 38.6412 12.5379 38.4995 12.5379C38.3467 12.5379 38.2367 12.5075 38.1548 12.4426C38.0886 12.3901 37.971 12.3472 37.8936 12.3472C37.8161 12.3472 37.6917 12.3152 37.6171 12.276C37.5426 12.2369 37.4071 12.204 37.316 12.203C37.2249 12.202 37.1091 12.1697 37.0586 12.1312C37.008 12.0927 36.8803 12.0605 36.7747 12.0597C36.669 12.0589 36.5413 12.0267 36.4908 11.9882C36.4403 11.9497 36.3113 11.9182 36.2041 11.9182C36.0969 11.9182 35.9679 11.8867 35.9174 11.8482C35.8669 11.8097 35.7271 11.7775 35.6066 11.7767C35.4713 11.7757 35.3652 11.7478 35.3288 11.7036C35.2925 11.6596 35.1887 11.6321 35.0584 11.6321C34.9185 11.6321 34.8061 11.5998 34.7266 11.5368C34.6604 11.4844 34.5399 11.4407 34.4589 11.4398C34.3778 11.4388 34.2583 11.4074 34.1932 11.3699C34.1281 11.3325 33.987 11.3011 33.8796 11.3001C33.7655 11.2991 33.6598 11.2687 33.6254 11.2269C33.593 11.1876 33.4972 11.1554 33.4125 11.1554C33.3278 11.1554 33.232 11.1232 33.1996 11.0839C33.1672 11.0446 33.106 11.0124 33.0637 11.0124C32.9183 11.0123 32.2734 10.3358 32.1314 10.0343C32.0906 9.94777 32.0162 9.83946 31.966 9.79369C31.9158 9.74792 31.8747 9.68614 31.8747 9.65644C31.8747 9.62674 31.8117 9.52815 31.7347 9.43738C31.6577 9.34662 31.5938 9.24278 31.5928 9.2066C31.5917 9.17047 31.5163 9.05777 31.4252 8.95618C31.3342 8.85463 31.2596 8.75033 31.2596 8.72444C31.2596 8.69855 31.1638 8.53637 31.0467 8.36403C30.9296 8.19165 30.8336 8.03595 30.8333 8.01793C30.8331 7.99991 30.7586 7.89098 30.6677 7.77585C30.5769 7.66072 30.5026 7.54192 30.5026 7.51184C30.5026 7.4818 30.4396 7.38288 30.3626 7.29211C30.2856 7.20134 30.2217 7.10481 30.2206 7.07759C30.2196 7.05036 30.1557 6.95383 30.0787 6.86306C30.0017 6.77229 29.9378 6.67294 29.9368 6.64233C29.9345 6.5764 29.294 5.59682 29.2252 5.55392C29.1991 5.53771 29.1778 5.48637 29.1778 5.43984C29.1778 5.39331 29.1145 5.29267 29.0371 5.2162C28.9598 5.13969 28.8959 5.04906 28.8952 5.01469C28.8944 4.98037 28.8194 4.85389 28.7283 4.73371C28.6372 4.61353 28.5627 4.49787 28.5627 4.47671C28.5627 4.45559 28.3923 4.18261 28.1841 3.87017C27.976 3.55772 27.8056 3.28112 27.8056 3.25547C27.8056 3.22983 27.7601 3.16799 27.7045 3.11803C27.6488 3.06807 27.574 2.96286 27.5381 2.8842C27.5022 2.80554 27.404 2.64388 27.3199 2.52494C27.2357 2.40604 27.0726 2.15934 26.9573 1.9767C26.1186 0.648301 25.4061 0 24.7847 0C24.6506 0 24.5409 0.0180677 24.5409 0.0401402ZM59.1284 9.39624C59.1284 9.47748 59.1594 9.61158 59.1972 9.6942C59.2776 9.86954 59.4017 10.2123 59.4587 10.4165C59.5113 10.6049 59.5986 10.8561 59.6787 11.0498C59.7143 11.1359 59.7436 11.2431 59.7438 11.2881C59.744 11.3331 59.7759 11.4314 59.8147 11.5065C59.8536 11.5816 59.8854 11.6724 59.8854 11.7084C59.8854 11.7443 59.9412 11.9617 60.0093 12.1916C60.2603 13.0383 60.3141 13.2328 60.3427 13.396C60.3588 13.4878 60.4009 13.6208 60.4362 13.6916C60.4716 13.7624 60.5005 13.8746 60.5005 13.9409C60.5005 14.0072 60.5295 14.1424 60.565 14.2413C60.6268 14.4139 60.6737 14.59 60.8095 15.1599C60.9186 15.6178 61.0111 15.9831 61.1172 16.3756C61.1739 16.5853 61.2362 16.832 61.2556 16.9238C61.275 17.0156 61.3169 17.1872 61.3488 17.3052C61.4787 17.7868 61.5098 17.9086 61.5436 18.068C61.5631 18.1597 61.6573 18.5351 61.753 18.9022C61.8487 19.2693 61.9537 19.6876 61.9863 19.8318C62.0189 19.9761 62.0706 20.1409 62.1011 20.1982C62.1316 20.2555 62.1573 20.3735 62.1582 20.4604C62.1592 20.5473 62.1904 20.6721 62.2275 20.7376C62.2647 20.8032 62.2958 20.9212 62.2966 20.9998C62.2974 21.0785 62.3282 21.2394 62.3651 21.3574C62.402 21.4754 62.4561 21.6684 62.4854 21.7864C62.5147 21.9044 62.5679 22.1189 62.6037 22.2632C62.695 22.632 62.8123 23.0997 62.8906 23.4073C62.9273 23.5515 62.9811 23.766 63.0102 23.884C63.0393 24.002 63.0912 24.2058 63.1255 24.3369C63.2378 24.766 63.4101 25.4597 63.4806 25.7671C63.5341 25.9998 63.8401 27.1991 64.1254 28.2938C64.2416 28.7395 64.3551 29.2007 64.3776 29.3187C64.4002 29.4367 64.4406 29.5869 64.4676 29.6524C64.4946 29.718 64.5298 29.873 64.5459 29.997C64.5619 30.1209 64.5932 30.2335 64.6153 30.2473C64.6374 30.261 64.6705 30.3849 64.6889 30.5225C64.7074 30.6601 64.7453 30.8156 64.7732 30.8681C64.8011 30.9205 64.841 31.0707 64.8619 31.2018C64.8828 31.3329 64.9439 31.6225 64.9976 31.8454C65.0514 32.0682 65.1058 32.3149 65.1187 32.3936C65.1315 32.4723 65.1723 32.6761 65.2092 32.8465C65.2825 33.1847 65.3591 33.5836 65.4284 33.9884C65.4529 34.1313 65.4961 34.2763 65.5243 34.3106C65.5656 34.3607 66.0913 34.3704 68.2257 34.3605C70.5254 34.3498 70.8808 34.3387 70.9124 34.2767C70.9324 34.2373 70.9849 34.0228 71.0289 33.7999C71.1946 32.9611 71.2949 32.483 71.3438 32.2983C71.3715 32.1934 71.4121 32.0003 71.4339 31.8692C71.4557 31.7381 71.5084 31.4914 71.5508 31.321C71.5933 31.1505 71.6553 30.8931 71.6887 30.7489C71.7473 30.4951 71.7915 30.3215 71.9251 29.8193C71.96 29.6882 72.0131 29.4844 72.0431 29.3664C72.0731 29.2484 72.1737 28.873 72.2667 28.5321C72.3597 28.1913 72.4532 27.8373 72.4746 27.7455C72.5495 27.4229 72.6223 27.1475 72.6886 26.9351C72.7255 26.8171 72.7556 26.673 72.7555 26.6149C72.7553 26.5568 72.7853 26.4388 72.8221 26.3527C72.8589 26.2666 72.9677 25.8851 73.0638 25.5049C73.1599 25.1247 73.2682 24.7186 73.3044 24.6025C73.3407 24.4864 73.3703 24.3441 73.3703 24.2862C73.3703 24.2283 73.4021 24.1195 73.441 24.0444C73.4799 23.9693 73.5125 23.8328 73.5135 23.741C73.5145 23.6492 73.5465 23.5325 73.5847 23.4816C73.6229 23.4307 73.6542 23.3468 73.6542 23.2951C73.6542 23.2081 73.691 23.0612 73.8708 22.43C73.9081 22.2989 73.9589 22.1058 73.9835 22.001C74.0598 21.6763 74.1331 21.3903 74.1971 21.1667C74.2584 20.9527 74.3445 20.6224 74.486 20.0583C74.5909 19.6402 74.6907 19.2736 74.7705 19.0126C74.808 18.8897 74.8586 18.6967 74.8828 18.5835C74.9346 18.3411 75.023 17.9979 75.1692 17.472C75.2275 17.2623 75.2845 17.037 75.2957 16.9715C75.3345 16.7459 75.5114 16.2087 75.547 16.2087C75.6129 16.2087 75.6738 16.3266 75.7315 16.5663C75.7632 16.6974 75.8197 16.928 75.8572 17.0787C75.8947 17.2295 75.9587 17.487 75.9994 17.6508C76.0402 17.8147 76.102 18.056 76.1369 18.1871C76.1717 18.3182 76.2477 18.6293 76.3056 18.8784C76.3636 19.1275 76.4401 19.4232 76.4757 19.5356C76.5113 19.6479 76.5404 19.7782 76.5404 19.825C76.5404 19.8719 76.5695 20.0052 76.605 20.1213C76.6742 20.3475 76.7662 20.7054 76.8247 20.976C76.8446 21.0678 77.0219 21.7864 77.2187 22.573C77.4156 23.3596 77.5981 24.089 77.6243 24.1939C77.6506 24.2988 78.0247 25.8112 78.4558 27.5548C79.3346 31.1096 79.3486 31.1659 79.4255 31.464C79.4559 31.582 79.491 31.7429 79.5034 31.8215C79.5157 31.9002 79.5563 32.104 79.5934 32.2744C79.6305 32.4449 79.6923 32.7452 79.7307 32.9418C79.7691 33.1385 79.8257 33.4281 79.8565 33.5854C79.8873 33.7427 79.9227 33.9573 79.9351 34.0621C79.9476 34.167 79.9793 34.2797 80.0056 34.3124C80.0429 34.3589 80.6867 34.372 82.935 34.372H85.8166L85.8644 34.2453C85.8907 34.1756 85.932 33.9986 85.9561 33.852C86.0348 33.3728 86.1047 33.0175 86.1681 32.775C86.2023 32.6439 86.3085 32.1934 86.404 31.7739C86.4996 31.3543 86.6083 30.9067 86.6455 30.7792C86.6828 30.6516 86.7132 30.5129 86.7132 30.4709C86.7132 30.4289 86.7431 30.308 86.7795 30.2022C86.8159 30.0965 86.8812 29.8705 86.9246 29.7001C86.9679 29.5297 87.034 29.2937 87.0715 29.1757C87.1089 29.0577 87.1395 28.9136 87.1393 28.8555C87.1392 28.7974 87.169 28.6794 87.2057 28.5933C87.2423 28.5072 87.3081 28.2973 87.352 28.1269C87.3959 27.9565 87.4696 27.6883 87.5159 27.531C87.5621 27.3737 87.6364 27.1055 87.6808 26.9351C87.7754 26.573 87.8801 26.188 87.9662 25.8863C87.9998 25.7683 88.0634 25.5323 88.1074 25.3619C88.2303 24.8869 88.3063 24.6063 88.4108 24.2416C88.4634 24.058 88.5412 23.7791 88.5836 23.6218C88.626 23.4645 88.691 23.2393 88.7281 23.1213C88.7652 23.0033 88.7955 22.8592 88.7954 22.8011C88.7952 22.743 88.8251 22.625 88.8617 22.5389C88.8983 22.4528 88.9637 22.2429 89.0069 22.0725C89.0501 21.902 89.1258 21.6231 89.1751 21.4527C89.2244 21.2823 89.3304 20.8961 89.4106 20.5946C89.4908 20.2931 89.585 19.9498 89.6199 19.8318C89.6548 19.7139 89.7191 19.4779 89.7628 19.3074C89.8065 19.137 89.873 18.901 89.9104 18.783C89.9478 18.6651 89.9784 18.521 89.9782 18.4629C89.9781 18.4048 90.0081 18.2868 90.0449 18.2007C90.0817 18.1146 90.1568 17.8725 90.2118 17.6627C90.2667 17.453 90.3406 17.1848 90.376 17.0668C90.4114 16.9488 90.4765 16.7129 90.5205 16.5424C90.6477 16.0509 90.7394 15.7196 90.7911 15.5651C90.8174 15.4865 90.8557 15.347 90.8761 15.2553C90.9279 15.0221 91.0784 14.4684 91.2776 13.7774C91.3115 13.6594 91.375 13.4234 91.4185 13.253C91.4621 13.0826 91.5191 12.8788 91.5453 12.8001C91.6469 12.4955 91.7359 12.172 91.771 11.9803C91.7911 11.8703 91.8297 11.7523 91.8568 11.7181C91.8839 11.6839 91.9176 11.5916 91.9317 11.513C91.9614 11.3475 92.0878 10.9607 92.1833 10.743C92.2195 10.6604 92.2498 10.5531 92.2507 10.5046C92.2515 10.4562 92.2834 10.3748 92.3216 10.324C92.3598 10.273 92.3911 10.1755 92.3911 10.107C92.3911 10.0386 92.416 9.95759 92.4464 9.92698C92.5203 9.85252 92.636 9.53969 92.6445 9.39152L92.6513 9.27234L89.9723 9.26004C87.8333 9.25022 87.2831 9.26009 87.2427 9.3091C87.2149 9.34285 87.179 9.64876 87.1629 9.98881C87.1469 10.3289 87.1126 10.7466 87.0869 10.917C87.0612 11.0875 87.0207 11.42 86.997 11.656C86.946 12.1631 86.8715 12.6137 86.7841 12.9431C86.6574 13.4208 86.6042 13.6631 86.5748 13.8966C86.5583 14.0277 86.5263 14.1649 86.5037 14.2015C86.4811 14.2381 86.4348 14.399 86.4009 14.5591C86.3359 14.8655 86.241 15.2794 86.1265 15.7558C86.0886 15.9131 86.0331 16.1706 86.003 16.3279C85.9729 16.4852 85.9181 16.7105 85.8811 16.8285C85.8441 16.9465 85.8139 17.0874 85.814 17.1418C85.8142 17.1961 85.7848 17.3355 85.7489 17.4516C85.713 17.5677 85.6048 18.006 85.5086 18.4255C85.4124 18.845 85.3129 19.2575 85.2874 19.3422C85.2619 19.4268 85.2222 19.5984 85.1991 19.7235C85.1383 20.0528 85.0592 20.3942 84.9824 20.6597C84.9455 20.7872 84.9145 20.9588 84.9136 21.0411C84.9127 21.1232 84.8815 21.2441 84.8443 21.3097C84.8071 21.3752 84.7759 21.4981 84.775 21.5829C84.7741 21.6675 84.7441 21.8177 84.7084 21.9166C84.6726 22.0154 84.621 22.2036 84.5937 22.3347C84.5664 22.4658 84.5123 22.7017 84.4735 22.8591C84.4348 23.0164 84.3782 23.2738 84.3478 23.4311C84.3173 23.5885 84.2689 23.7923 84.2403 23.884C84.2115 23.9758 84.1723 24.1474 84.153 24.2654C84.1336 24.3834 84.0929 24.5765 84.0624 24.6945C84.032 24.8125 83.9782 25.027 83.943 25.1712C83.9077 25.3154 83.8353 25.6065 83.782 25.818C83.7287 26.0296 83.6851 26.2559 83.6851 26.321C83.6851 26.386 83.6661 26.4596 83.643 26.4846C83.6199 26.5095 83.5781 26.6479 83.5501 26.7921C83.3759 27.6914 83.2984 27.9555 83.2034 27.9741C83.1306 27.9883 83.0099 27.7302 82.9516 27.4356C82.9361 27.357 82.8937 27.1854 82.8574 27.0543C82.8212 26.9232 82.757 26.6765 82.7147 26.506C82.6725 26.3356 82.6074 26.087 82.57 25.9536C82.5327 25.8202 82.5022 25.684 82.5022 25.6509C82.5022 25.6179 82.4731 25.5232 82.4377 25.4406C82.4022 25.358 82.3483 25.1724 82.318 25.0282C82.248 24.6959 82.2058 24.5246 82.077 24.0509C81.8876 23.3546 81.7828 22.9563 81.7448 22.7876C81.724 22.6958 81.6854 22.5563 81.659 22.4777C81.6128 22.3406 81.5826 22.2249 81.4412 21.6434C81.3549 21.2887 81.108 20.3453 81.017 20.0225C80.9763 19.8783 80.9195 19.6638 80.8908 19.5458C80.8621 19.4278 80.8101 19.224 80.7752 19.0929C80.7403 18.9618 80.6784 18.7258 80.6376 18.5685C80.5967 18.4112 80.508 18.0787 80.4403 17.8296C80.3727 17.5805 80.2982 17.2841 80.275 17.171C80.2518 17.0579 80.202 16.8648 80.1644 16.7419C80.0729 16.4428 79.9042 15.8069 79.8079 15.3983C79.6915 14.9044 79.6079 14.6027 79.5671 14.5289C79.5419 14.4834 79.5213 14.3915 79.5213 14.3247C79.5213 14.258 79.4925 14.134 79.4574 14.0492C79.4222 13.9644 79.3776 13.7884 79.3582 13.6581C79.3388 13.5278 79.293 13.3629 79.2565 13.2918C79.22 13.2206 79.1893 13.0916 79.1884 13.0051C79.1875 12.9186 79.1563 12.7942 79.1191 12.7286C79.0819 12.6631 79.0508 12.5314 79.0498 12.4361C79.0489 12.3408 79.0183 12.1584 78.9818 12.0309C78.9079 11.7722 78.8217 11.3558 78.7632 10.9742C78.7419 10.8352 78.7031 10.6207 78.6771 10.4975C78.651 10.3743 78.5948 10.0819 78.5521 9.8477C78.5095 9.61353 78.4538 9.38294 78.4285 9.33522C78.3848 9.25303 78.2495 9.2485 75.83 9.2485H73.2775L73.2552 9.35577C73.243 9.41479 73.2232 9.53812 73.2112 9.62989C73.1572 10.0428 73.0753 10.5375 73.0127 10.8285C72.9751 11.0027 72.9445 11.2222 72.9445 11.3162C72.9445 11.4103 72.9152 11.5681 72.8794 11.6669C72.8436 11.7658 72.7664 12.0826 72.7079 12.3711C72.6494 12.6595 72.5722 12.9874 72.5364 13.0997C72.5006 13.2121 72.4713 13.3545 72.4713 13.4161C72.4713 13.4777 72.4395 13.5896 72.4006 13.6647C72.3618 13.7398 72.3298 13.8724 72.3297 13.9593C72.3295 14.0462 72.3052 14.1628 72.2758 14.2182C72.2274 14.3094 72.1604 14.5443 72.0479 15.0169C72.0261 15.1087 71.9614 15.3554 71.9041 15.5651C71.8467 15.7749 71.7708 16.0645 71.7352 16.2087C71.5904 16.7964 71.5614 16.9091 71.5026 17.1145C71.4375 17.3416 71.3363 17.7315 71.2147 18.2229C71.1742 18.3868 71.1115 18.6281 71.0755 18.7592C71.0394 18.8903 70.9885 19.0834 70.9622 19.1883C70.936 19.2931 70.8904 19.4755 70.8608 19.5935C70.8312 19.7115 70.7793 19.9045 70.7455 20.0225C70.6817 20.2455 70.5842 20.6207 70.4573 21.1309C70.4167 21.2948 70.3596 21.504 70.3307 21.5957C70.3018 21.6875 70.2615 21.8484 70.2413 21.9533C70.221 22.0582 70.159 22.3049 70.1035 22.5015C69.9858 22.9187 69.829 23.5028 69.7708 23.741C69.7484 23.8328 69.6982 24.0366 69.6594 24.1939C69.6205 24.3512 69.5649 24.5765 69.5358 24.6945C69.5066 24.8125 69.4611 24.9733 69.4344 25.052C69.4078 25.1307 69.3685 25.2955 69.347 25.4183C69.3255 25.5411 69.2869 25.681 69.2613 25.7292C69.2357 25.7774 69.1931 25.9237 69.1667 26.0542C69.1403 26.1847 69.0421 26.5704 68.9486 26.9112C68.8551 27.2521 68.7655 27.6061 68.7494 27.6978C68.7137 27.9023 68.6541 27.9839 68.5405 27.9839C68.4771 27.9839 68.4459 27.9358 68.4243 27.8051C68.4081 27.7068 68.3645 27.5313 68.3275 27.4152C68.2905 27.2991 68.2603 27.1525 68.2603 27.0893C68.2603 27.0262 68.2298 26.8423 68.1927 26.6807C68.0638 26.1197 67.9827 25.7182 67.9532 25.4941C67.9369 25.3702 67.9035 25.2563 67.879 25.241C67.8545 25.2257 67.8339 25.1341 67.8333 25.0373C67.8327 24.9405 67.8102 24.7755 67.7834 24.6706C67.7377 24.4921 67.6768 24.2008 67.5294 23.455C67.4957 23.2845 67.4454 23.0486 67.4176 22.9306C67.3898 22.8126 67.3342 22.5497 67.2939 22.3464C67.0786 21.2582 67.0029 20.8842 66.8867 20.3324C66.8014 19.9278 66.7005 19.4193 66.6316 19.048C66.5953 18.8527 66.5505 18.6682 66.5319 18.6379C66.5134 18.6076 66.4824 18.4616 66.4632 18.3135C66.444 18.1654 66.4053 17.9476 66.3772 17.8296C66.3491 17.7116 66.2919 17.4434 66.2501 17.2337C66.1777 16.8707 66.1034 16.5041 65.9843 15.9227C65.8849 15.4372 65.806 15.0428 65.7365 14.6832C65.6985 14.4865 65.6439 14.2652 65.6153 14.1914C65.5867 14.1177 65.5633 13.9813 65.5633 13.8884C65.5633 13.7955 65.5326 13.577 65.4951 13.4028C65.4092 13.004 65.3302 12.4858 65.2768 11.9715C65.254 11.7518 65.2152 11.505 65.1907 11.4233C65.1661 11.3415 65.1321 11.0815 65.1152 10.8455C65.0638 10.1304 64.9741 9.37121 64.9336 9.3081C64.9036 9.26152 64.2667 9.2485 62.0118 9.2485H59.1284V9.39624ZM96.3658 10.243C96.2327 10.2675 96.1825 10.3107 96.1081 10.4642C96.0216 10.6427 96.015 10.7795 96.0053 12.6094C95.994 14.7538 96.0019 14.8254 96.27 14.9849C96.3887 15.0556 96.606 15.0646 98.1945 15.0645C99.8338 15.0645 100.005 15.0569 100.222 14.9746C100.439 14.8922 100.463 14.8673 100.51 14.6767C100.568 14.4448 100.563 10.7658 100.505 10.501C100.486 10.4163 100.438 10.3198 100.398 10.2864C100.342 10.2398 99.8865 10.2243 98.4284 10.2192C97.3849 10.2155 96.4568 10.2262 96.3658 10.243ZM145.368 14.5274C145.112 14.8097 144.674 15.2874 144.394 15.589C144.114 15.8905 143.696 16.3505 143.464 16.6113C143.232 16.8721 142.838 17.3011 142.588 17.5648C142.338 17.8284 141.902 18.3007 141.618 18.6143C141.334 18.9279 140.9 19.4008 140.653 19.6653C139.254 21.1616 138.791 21.7017 138.84 21.78C138.883 21.8484 139.042 21.8595 140.129 21.8707L141.369 21.8833L141.36 26.185C141.353 29.26 141.366 30.5547 141.404 30.7251C141.434 30.8562 141.47 31.0278 141.485 31.1064C141.524 31.3106 141.699 31.8603 141.744 31.9173C141.764 31.9437 141.812 32.055 141.849 32.1646C141.957 32.4791 142.248 32.886 142.662 33.2994C143.022 33.66 143.628 34.086 143.78 34.086C143.818 34.086 143.891 34.1156 143.942 34.1519C144.098 34.2619 144.898 34.513 145.185 34.542C145.334 34.5571 145.658 34.6024 145.905 34.6429C146.383 34.721 147.708 34.7042 148.294 34.6124C148.45 34.5879 148.748 34.5451 148.957 34.5171C149.479 34.4469 150.064 34.34 150.234 34.2837C150.404 34.2274 150.75 34.1369 150.935 34.1005C151.02 34.0838 151.085 34.0309 151.114 33.956C151.139 33.8885 151.153 33.1918 151.146 32.3292L151.133 30.8204L150.897 30.8049C150.766 30.7964 150.479 30.8226 150.258 30.8633C149.788 30.9495 148.498 31.0838 148.145 31.0831C147.624 31.082 146.925 30.8824 146.623 30.6481C146.457 30.5195 146.202 30.1641 146.108 29.9312C146.031 29.7399 146.023 29.4225 146.011 25.8029L145.998 21.8818H148.501C150.546 21.8818 151.013 21.87 151.056 21.8173C151.122 21.738 151.251 19.4928 151.251 18.4374C151.251 18.0244 151.246 17.6817 151.24 17.6757C151.233 17.6697 150.057 17.6536 148.625 17.6399L146.023 17.6151L145.999 15.828C145.979 14.2899 145.966 14.039 145.905 14.0274C145.865 14.0198 145.631 14.2374 145.368 14.5274ZM29.4761 14.2503C29.7169 14.3614 29.9037 14.5566 29.9751 14.7721C30.0135 14.8878 30.029 16.8974 30.0309 21.9831C30.0333 28.7768 30.0302 29.0411 29.9447 29.2358C29.8959 29.3469 29.7772 29.5076 29.6808 29.5928L29.5057 29.7478H24.8926C21.0551 29.7478 20.2529 29.7366 20.1216 29.6813C19.9436 29.6064 19.7542 29.3743 19.6739 29.1328C19.6346 29.0146 19.6201 27.085 19.6201 22.0025C19.6201 14.4629 19.6124 14.6984 19.8676 14.4569C19.9266 14.4011 20.0707 14.3116 20.1878 14.2581C20.3973 14.1625 20.474 14.1609 24.8392 14.1598C29.1164 14.1588 29.2848 14.1621 29.4761 14.2503ZM20.2825 14.8739C20.1887 14.9684 20.1878 15.0328 20.1878 21.9273V28.8853L20.3083 29.0067L20.4287 29.128H24.8417H29.2547L29.3818 28.9943L29.509 28.8606V21.9452V15.0298L29.4109 14.9042L29.3129 14.7785H24.845C20.4402 14.7785 20.3758 14.7799 20.2825 14.8739ZM21.8332 15.8881C22.1004 16.1591 22.1751 16.2651 22.1751 16.3736C22.1751 16.5714 22.0081 16.7331 21.8039 16.7331C21.7129 16.7331 21.5995 16.7686 21.5519 16.812C21.4714 16.8854 21.4594 16.8854 21.3788 16.812C21.3312 16.7686 21.2315 16.7331 21.1572 16.7331C20.9658 16.7331 20.8029 16.5635 20.8029 16.3643C20.8029 16.2294 20.8554 16.1486 21.1223 15.8724C21.298 15.6907 21.4529 15.5418 21.4665 15.5416C21.4802 15.5414 21.6452 15.6973 21.8332 15.8881ZM176.944 17.2823C176.366 17.4226 176.017 17.4966 175.933 17.4963C175.885 17.4961 175.704 17.5273 175.531 17.5657C175.358 17.6041 175.046 17.6697 174.838 17.7116C174.63 17.7536 174.257 17.8302 174.01 17.8818C173.011 18.0907 172.889 18.1143 172.675 18.1408C172.553 18.1561 172.407 18.2061 172.35 18.252L172.248 18.3355L172.353 18.5427C172.495 18.8228 172.577 19.0573 172.722 19.5935L172.845 20.0464L172.863 25.9614C172.882 32.5475 172.86 33.2425 172.61 33.8364C172.574 33.9219 172.531 34.0774 172.514 34.182L172.484 34.372H175.089C176.772 34.372 177.705 34.3551 177.724 34.3244C177.74 34.2983 177.723 34.2178 177.685 34.1457C177.591 33.9635 177.513 33.5495 177.438 32.8227C177.389 32.347 177.374 31.0595 177.372 27.2842L177.369 22.3654L177.494 22.2666C177.569 22.2073 177.688 22.1678 177.793 22.1678C177.889 22.1678 178.083 22.1325 178.224 22.0893C178.441 22.0233 178.718 22.0113 179.972 22.0139C180.94 22.0159 181.51 22.0355 181.598 22.0696C181.673 22.0986 181.897 22.1345 182.095 22.1494C182.294 22.1643 182.528 22.1984 182.615 22.2253C182.759 22.2696 182.786 22.2617 182.897 22.1409C182.976 22.0553 182.999 22.0007 182.963 21.9884C182.891 21.9645 182.882 21.262 182.953 21.262C182.983 21.262 183 20.6131 183 19.4105V17.5589L182.879 17.5036C182.567 17.3602 180.905 17.5027 180.408 17.7154C180.322 17.752 180.216 17.782 180.171 17.7822C180.039 17.7825 179.452 18.1051 179.115 18.3618C178.806 18.5976 178.364 19.0644 178.253 19.2717C178.221 19.3307 178.14 19.4648 178.073 19.5696C177.944 19.7723 177.606 20.5959 177.606 20.7087C177.606 20.7456 177.553 20.8906 177.488 21.0309L177.37 21.2859L177.37 19.3051C177.369 17.3851 177.357 17.1921 177.23 17.2145C177.216 17.217 177.087 17.2475 176.944 17.2823ZM114.913 17.4554C114.77 17.4787 114.547 17.5196 114.416 17.5463C114.286 17.5731 114.088 17.6123 113.976 17.6336C113.865 17.6548 113.748 17.6969 113.719 17.727C113.689 17.7572 113.63 17.7819 113.589 17.7819C113.487 17.7819 112.872 18.083 112.628 18.2521C112.349 18.4459 111.946 18.8472 111.664 19.2121C111.417 19.531 111.018 20.3107 110.963 20.5794C110.924 20.7734 110.809 20.8806 110.745 20.7822C110.72 20.7428 110.703 20.0525 110.706 19.1558C110.709 18.2989 110.698 17.5748 110.68 17.5468C110.637 17.476 110.324 17.4832 109.952 17.5639C109.779 17.6013 109.425 17.6676 109.164 17.7112C108.904 17.7547 108.532 17.8219 108.336 17.8603C108.141 17.8989 107.837 17.9501 107.661 17.9741C107.485 17.9982 107.3 18.0399 107.25 18.0668C107.2 18.0937 107.055 18.1156 106.928 18.1156C106.8 18.1156 106.591 18.1476 106.463 18.1866C106.335 18.2257 106.153 18.2578 106.057 18.2581C105.849 18.2587 105.72 18.3694 105.758 18.5139C105.85 18.8659 105.876 19.0073 105.943 19.522C106.093 20.6775 106.121 22.1473 106.095 27.4595C106.081 30.3043 106.05 32.8036 106.026 33.0133C106.002 33.2231 105.946 33.5664 105.902 33.7761C105.858 33.9859 105.819 34.2004 105.814 34.2528C105.805 34.347 105.837 34.3483 108.372 34.3605L110.939 34.3728V34.1904C110.939 34.09 110.909 33.9022 110.872 33.7729C110.745 33.3247 110.694 30.9499 110.71 26.2444L110.726 21.7639L110.849 21.7044C110.917 21.6717 111.14 21.6226 111.346 21.5954C111.551 21.5682 111.952 21.5113 112.236 21.4689C113.093 21.3413 114.294 21.4457 114.767 21.689C115.032 21.8253 115.398 22.1808 115.512 22.4131C115.774 22.9479 115.765 22.7456 115.765 28.0596C115.765 32.097 115.753 33.0374 115.697 33.3709C115.66 33.5938 115.622 33.9048 115.614 34.0621L115.599 34.3482H118.131H120.662L120.655 34.2052C120.651 34.1265 120.625 33.9763 120.599 33.8715C120.378 33.0129 120.383 33.1457 120.348 27.2688C120.33 24.0658 120.296 21.5737 120.269 21.3812C120.184 20.7721 119.964 20.0717 119.739 19.6888C119.716 19.6495 119.653 19.5306 119.6 19.4247C119.458 19.1406 119.018 18.6223 118.709 18.3751C118.042 17.8419 117.344 17.5672 116.404 17.4683C115.717 17.3961 115.3 17.3925 114.913 17.4554ZM130.314 17.4588C129.834 17.4982 128.991 17.6552 128.824 17.7363C128.785 17.7552 128.625 17.8197 128.469 17.8796C127.632 18.2006 127.064 18.5639 126.472 19.157C126.243 19.3866 125.937 19.7557 125.791 19.9772C125.528 20.3772 125.181 21.1516 125.181 21.337C125.181 21.3902 125.16 21.4545 125.135 21.48C125.109 21.5054 125.067 21.6653 125.041 21.8351C125.014 22.005 124.972 22.2405 124.947 22.3585C124.89 22.6226 124.89 23.5763 124.946 23.9317C125.038 24.5122 125.075 24.6832 125.17 24.9682C125.493 25.9319 126.003 26.5721 127.017 27.286C127.339 27.5125 128.292 27.9742 128.8 28.1495C128.93 28.1944 129.093 28.2614 129.162 28.2982C129.231 28.3351 129.338 28.366 129.399 28.3669C129.46 28.3679 129.563 28.3993 129.628 28.4368C129.693 28.4742 129.813 28.5057 129.895 28.5066C129.976 28.5075 130.119 28.5405 130.212 28.5798C130.306 28.6191 130.449 28.6513 130.53 28.6513C130.612 28.6513 130.735 28.6806 130.804 28.7164C130.873 28.7521 131.185 28.8636 131.497 28.964C132.016 29.131 132.224 29.2123 132.42 29.3256C132.459 29.3482 132.533 29.3859 132.585 29.4096C132.715 29.4682 132.961 29.7388 133.053 29.9242C133.15 30.1172 133.149 30.2386 133.051 30.509C132.868 31.0119 132.43 31.2741 131.568 31.3958C130.446 31.5544 129.038 31.4124 127.901 31.0262C127.823 30.9996 127.685 30.9607 127.594 30.9396C127.296 30.8707 127.13 30.8056 126.445 30.4896C126.243 30.3962 126.049 30.3198 126.013 30.3198C125.978 30.3198 125.922 30.2866 125.888 30.2459C125.851 30.2009 125.77 30.1776 125.681 30.1863L125.535 30.2007V31.9594C125.535 33.4757 125.545 33.7228 125.606 33.7522C125.646 33.771 125.741 33.8178 125.819 33.8563C125.897 33.8947 126.089 33.9639 126.245 34.0101C126.401 34.0564 126.593 34.1162 126.671 34.143C126.749 34.1698 126.924 34.2089 127.059 34.2298C127.194 34.2506 127.325 34.2805 127.35 34.2961C127.438 34.3508 128.523 34.5247 129.179 34.5891C130.073 34.6769 131.347 34.6748 132.077 34.5842C132.404 34.5435 132.705 34.4927 132.747 34.4713C132.788 34.4498 132.907 34.4169 133.011 34.3981C133.344 34.3383 134.108 34.0518 134.36 33.8923C134.399 33.8676 134.478 33.8267 134.536 33.8015C134.793 33.6894 135.384 33.23 135.698 32.8985C136.037 32.5404 136.44 31.9201 136.539 31.6037C136.567 31.5138 136.621 31.3832 136.658 31.3136C136.695 31.244 136.726 31.1475 136.726 31.0991C136.727 31.0507 136.762 30.9146 136.804 30.7966C136.866 30.6245 136.881 30.3934 136.88 29.6286C136.88 29.0484 136.857 28.5911 136.823 28.4606C136.792 28.3426 136.748 28.171 136.726 28.0792C136.511 27.191 135.985 26.4415 135.129 25.8023C134.74 25.5125 133.992 25.1118 133.721 25.0483C133.643 25.03 133.55 24.9916 133.514 24.963C133.429 24.8949 132.946 24.7438 132.812 24.7429C132.754 24.7425 132.637 24.712 132.552 24.6751C132.466 24.6382 132.268 24.5746 132.112 24.5337C131.618 24.4045 130.844 24.2069 130.575 24.141C129.801 23.9522 129.232 23.6769 128.924 23.3436C128.694 23.0939 128.696 22.5308 128.928 22.1842C129.274 21.6685 130.022 21.4272 131.261 21.432C132.242 21.4358 134.179 21.7761 135.082 22.1032C135.18 22.1387 135.298 22.1678 135.344 22.1678C135.39 22.1678 135.512 22.2107 135.614 22.2632C135.944 22.4327 135.955 22.4206 135.99 21.8699C136.008 21.6011 136.026 20.6637 136.03 19.7868L136.04 18.1924L135.803 18.1026C135.673 18.0531 135.502 17.9949 135.424 17.9732C135.346 17.9515 135.112 17.8863 134.904 17.8283C134.696 17.7703 134.387 17.7037 134.218 17.6802C134.049 17.6568 133.719 17.6066 133.484 17.5688C132.422 17.397 131.47 17.3639 130.314 17.4588ZM159.715 17.4227C159.7 17.4375 159.381 17.4695 159.006 17.4939C158.632 17.5182 158.176 17.5604 157.994 17.5875C157.812 17.6146 157.428 17.6707 157.142 17.7122C156.584 17.793 155.906 17.9356 155.551 18.0469C155.43 18.0847 155.27 18.1164 155.196 18.1173C155.121 18.1182 155.007 18.1497 154.942 18.1871C154.877 18.2246 154.76 18.2561 154.682 18.2571C154.604 18.2582 154.471 18.3015 154.386 18.3535L154.232 18.448L154.233 20.5105C154.233 21.6449 154.251 22.6012 154.273 22.6355C154.305 22.6855 154.392 22.6724 154.71 22.5702C154.929 22.4999 155.164 22.4128 155.233 22.3766C155.302 22.3404 155.396 22.3108 155.442 22.3108C155.488 22.3108 155.633 22.2801 155.766 22.2425C157.14 21.852 158.104 21.7182 159.555 21.7163C160.658 21.7148 160.691 21.7201 161.26 21.9825C161.492 22.0898 161.817 22.4152 161.946 22.6701C162.062 22.9001 162.113 23.7139 162.054 24.4084L162.016 24.8613L161.566 24.9176C161.319 24.9485 160.85 24.997 160.525 25.0253C160.2 25.0535 159.785 25.0974 159.603 25.1228C159.42 25.1481 159.022 25.191 158.717 25.2182C158.412 25.2453 158.108 25.2887 158.04 25.3147C157.972 25.3407 157.79 25.3619 157.634 25.3619C157.479 25.3619 157.276 25.3941 157.182 25.4334C157.089 25.4727 156.966 25.5049 156.909 25.5049C156.852 25.5049 156.764 25.5364 156.714 25.5749C156.663 25.6134 156.572 25.6456 156.511 25.6464C156.45 25.6472 156.343 25.6774 156.274 25.7135C156.033 25.8397 155.712 25.9816 155.669 25.9816C155.597 25.9816 155.146 26.2887 154.854 26.5365C153.943 27.3083 153.465 28.4391 153.456 29.8431C153.451 30.4241 153.525 31.1535 153.623 31.5117C153.736 31.9254 154.018 32.5564 154.223 32.8563C154.482 33.2359 155.117 33.8476 155.368 33.9586C155.407 33.9759 155.476 34.0116 155.522 34.038C155.567 34.0644 155.642 34.1076 155.687 34.1339C155.733 34.1604 155.802 34.1942 155.841 34.2093C155.88 34.2244 156 34.2781 156.107 34.3287C156.509 34.5177 157.341 34.6581 158.059 34.6581C158.788 34.6581 159.387 34.5519 159.938 34.325C160.457 34.1115 160.505 34.0831 160.887 33.7628C161.131 33.5574 161.566 33.0055 161.566 32.9003C161.566 32.8791 161.63 32.7338 161.707 32.5774C161.785 32.4211 161.865 32.1781 161.885 32.0374C161.905 31.8968 161.945 31.7736 161.975 31.7637C162.028 31.7458 162.181 32.1237 162.181 32.2727C162.181 32.3148 162.289 32.5686 162.42 32.8367C162.608 33.2204 162.726 33.3923 162.978 33.6454C163.154 33.8222 163.335 33.9945 163.379 34.0284C163.654 34.2398 164.42 34.5179 164.962 34.6037C165.597 34.7041 166.711 34.6535 167.481 34.4895C167.65 34.4534 167.873 34.4093 167.977 34.3916C168.081 34.3738 168.224 34.33 168.294 34.2941C168.365 34.2583 168.467 34.229 168.521 34.229C168.576 34.229 168.673 34.1763 168.737 34.112L168.853 33.995V32.6638C168.853 31.5517 168.841 31.3231 168.783 31.2746C168.73 31.2297 168.606 31.2283 168.237 31.2687C167.363 31.3646 167.097 31.3317 166.777 31.0885C166.689 31.0218 166.562 30.8805 166.493 30.7746L166.369 30.582L166.373 29.4379C166.376 28.8086 166.404 28.0685 166.435 27.7932C166.467 27.5179 166.511 27.0352 166.533 26.7206C166.555 26.4059 166.597 25.891 166.626 25.5764C166.808 23.5933 166.85 22.5695 166.775 21.9533C166.658 20.9955 166.633 20.8347 166.585 20.7436C166.557 20.6913 166.534 20.6041 166.534 20.5499C166.534 20.4065 166.14 19.5951 165.938 19.3246C165.519 18.7601 164.995 18.3436 164.254 17.9847C163.944 17.8347 163.807 17.7903 163.262 17.664C163.114 17.6298 162.97 17.5873 162.942 17.5695C162.792 17.4764 159.797 17.34 159.715 17.4227ZM99.7959 17.5668C99.6398 17.6012 99.2885 17.6664 99.0152 17.7116C98.742 17.7569 98.3694 17.8259 98.1872 17.8648C98.0051 17.9038 97.7281 17.9514 97.5716 17.9707C97.4153 17.9899 97.1811 18.029 97.0512 18.0576C96.83 18.1063 96.4587 18.1712 95.9238 18.2546C95.7022 18.2892 95.5866 18.375 95.6414 18.4643C95.656 18.4881 95.685 18.6501 95.7058 18.8241C95.7266 18.9982 95.7658 19.2586 95.793 19.4028C95.8202 19.547 95.8754 20.0511 95.9158 20.5231C96.0262 21.8129 96.0243 31.7178 95.9135 32.7988C95.8718 33.2052 95.8074 33.6421 95.7704 33.7697C95.7334 33.8972 95.7032 34.0849 95.7032 34.1868V34.372H98.2586H100.814L100.785 34.0979C100.77 33.9471 100.734 33.7058 100.705 33.5616C100.67 33.3809 100.649 30.8618 100.638 25.4614C100.627 19.8062 100.608 17.6057 100.57 17.5597C100.505 17.4801 100.176 17.4831 99.7959 17.5668ZM25.8082 20.4635C26.313 20.9682 26.8146 21.5099 26.9228 21.6672L27.0608 21.9672L27.1173 22.4062C27.1149 22.9036 27.0834 22.9868 26.7681 23.3279C26.444 23.6785 25.9963 23.8078 25.4875 23.6979C25.3482 23.6677 25.2162 23.6613 25.1941 23.6835C25.1721 23.7056 25.1865 23.8162 25.226 23.9291C25.3076 24.162 25.3187 24.3422 25.254 24.3825C25.1866 24.4244 24.5009 24.4425 24.439 24.4039C24.3913 24.3742 24.4012 24.0041 24.457 23.7323C24.4648 23.6943 24.4324 23.6739 24.3753 23.6806C23.5379 23.7788 23.3322 23.7422 22.9957 23.4355C22.7483 23.21 22.5931 22.9386 22.5138 22.5933C22.4721 22.4116 22.4795 22.3244 22.5577 22.0712C22.6093 21.904 22.7081 21.6926 22.7771 21.6014C22.9822 21.3304 24.7644 19.5458 24.8299 19.5458C24.8631 19.5458 25.3033 19.9588 25.8082 20.4635ZM28.5733 27.3509C28.8474 27.625 28.8939 27.6956 28.8939 27.838C28.8939 28.0483 28.7111 28.2222 28.4901 28.2222C28.4063 28.2222 28.3107 28.2549 28.2778 28.2949C28.2241 28.3601 28.2096 28.3601 28.1382 28.2949C28.0943 28.2549 27.9949 28.2222 27.9172 28.2222C27.7408 28.2222 27.5217 28.0058 27.5217 27.8313C27.5217 27.7435 27.6138 27.6122 27.8411 27.376C28.0167 27.1935 28.1813 27.0411 28.2066 27.0373C28.232 27.0335 28.397 27.1746 28.5733 27.3509ZM162.006 28.1031C162 28.2079 161.982 28.8944 161.965 29.6286C161.948 30.3627 161.915 30.9839 161.892 31.0089C161.765 31.145 160.735 31.3199 160.076 31.3171C159.249 31.3135 158.836 31.183 158.481 30.8125C158.198 30.5173 158.096 30.2273 158.095 29.7194C158.095 29.3603 158.113 29.2497 158.203 29.0758C158.352 28.7857 158.594 28.4966 158.757 28.4143C158.832 28.3764 158.921 28.3246 158.955 28.2993C159.117 28.1793 159.568 28.0743 160.186 28.0127C160.558 27.9756 160.877 27.9318 160.893 27.9154C160.909 27.8991 161.168 27.8917 161.469 27.899L162.016 27.9124L162.006 28.1031Z" fill="url(#paint0_linear_108_306)"/>
</g>
<defs>
<filter id="filter0_d_108_306" x="0" y="0" width="187" height="48" filterUnits="userSpaceOnUse" color-interpolation-filters="sRGB">
<feFlood flood-opacity="0" result="BackgroundImageFix"/>
<feColorMatrix in="SourceAlpha" type="matrix" values="0 0 0 0 0 0 0 0 0 0 0 0 0 0 0 0 0 0 127 0" result="hardAlpha"/>
<feOffset dy="4"/>
<feGaussianBlur stdDeviation="2"/>
<feComposite in2="hardAlpha" operator="out"/>
<feColorMatrix type="matrix" values="0 0 0 0 0 0 0 0 0 0 0 0 0 0 0 0 0 0 0.25 0"/>
<feBlend mode="normal" in2="BackgroundImageFix" result="effect1_dropShadow_108_306"/>
<feBlend mode="normal" in="SourceGraphic" in2="effect1_dropShadow_108_306" result="shape"/>
</filter>
<linearGradient id="paint0_linear_108_306" x1="94" y1="0" x2="94" y2="40" gradientUnits="userSpaceOnUse">
<stop stop-color="#7AFFC5"/>
<stop offset="1" stop-color="#129379"/>
</linearGradient>
</defs>
</svg>
