<svg width="15" height="17" viewBox="0 0 15 17" fill="none" xmlns="http://www.w3.org/2000/svg">
<path d="M3.75 13.9091L7.5 10.8182L7.5 13.1364C10.6031 13.1364 13.125 11.0577 13.125 8.5C13.125 7.71955 12.8906 6.97773 12.4687 6.33636L13.8375 5.20818C14.5687 6.15864 15 7.28682 15 8.5C15 11.9155 11.6437 14.6818 7.5 14.6818L7.5 17L3.75 13.9091ZM7.5 3.86364C4.39688 3.86364 1.875 5.94227 1.875 8.5C1.875 9.28046 2.10938 10.0223 2.53125 10.6636L1.1625 11.7918C0.43125 10.8414 4.24577e-07 9.71318 3.71547e-07 8.5C2.22253e-07 5.08455 3.35625 2.31818 7.5 2.31818L7.5 -6.55671e-07L11.25 3.09091L7.5 6.18182L7.5 3.86364Z" fill="#E0F4F5"/>
</svg>
