<svg width="291" height="74" viewBox="0 0 291 74" fill="none" xmlns="http://www.w3.org/2000/svg">
<path d="M59.3936 59.232C57.3456 62.496 54.9136 65.184 52.0976 67.296C49.3456 69.344 46.3056 70.88 42.9776 71.904C39.7136 72.928 36.2576 73.44 32.6096 73.44C27.9376 73.44 23.6496 72.672 19.7456 71.136C15.9056 69.536 12.5456 67.232 9.66563 64.224C6.84963 61.152 4.67363 57.472 3.13763 53.184C1.60163 48.832 0.833625 43.872 0.833625 38.304C0.833625 32.928 1.60163 28.064 3.13763 23.712C4.73763 19.36 6.97763 15.616 9.85763 12.48C12.8016 9.28 16.2896 6.848 20.3216 5.184C24.4176 3.456 28.9936 2.592 34.0496 2.592C37.6976 2.592 41.1216 2.944 44.3216 3.648C47.5216 4.352 50.4016 5.344 52.9616 6.62399C55.5856 7.904 57.7616 9.376 59.4896 11.04L54.4976 36H52.7696L51.3296 22.08C50.9456 17.92 49.9856 14.528 48.4496 11.904C46.9136 9.216 44.7696 7.232 42.0176 5.952C39.3296 4.608 35.9376 3.936 31.8416 3.936C28.8976 3.936 26.1776 4.736 23.6816 6.336C21.1856 7.936 19.0416 10.176 17.2496 13.056C15.5216 15.872 14.1776 19.168 13.2176 22.944C12.2576 26.72 11.7776 30.784 11.7776 35.136C11.7776 39.808 12.3216 44.16 13.4096 48.192C14.5616 52.224 16.2576 55.744 18.4976 58.752C20.7376 61.696 23.5536 64 26.9456 65.664C30.3376 67.328 34.3056 68.16 38.8496 68.16C42.7536 68.16 46.4016 67.328 49.7936 65.664C53.1856 64 56.0656 61.632 58.4336 58.56L59.3936 59.232ZM94.3894 22.56C98.3574 22.56 101.877 23.168 104.949 24.384C108.085 25.6 110.709 27.36 112.821 29.664C114.933 31.904 116.533 34.624 117.621 37.824C118.709 40.96 119.253 44.48 119.253 48.384C119.253 52.032 118.709 55.392 117.621 58.464C116.533 61.472 114.933 64.128 112.821 66.432C110.709 68.672 108.117 70.4 105.045 71.616C101.973 72.832 98.4214 73.44 94.3894 73.44C90.2934 73.44 86.6774 72.832 83.5414 71.616C80.4694 70.4 77.8774 68.672 75.7654 66.432C73.6534 64.128 72.0534 61.472 70.9654 58.464C69.9414 55.392 69.4294 52.032 69.4294 48.384C69.4294 44.48 70.0054 40.96 71.1574 37.824C72.3094 34.624 73.9414 31.904 76.0534 29.664C78.2294 27.36 80.8534 25.6 83.9254 24.384C86.9974 23.168 90.4854 22.56 94.3894 22.56ZM94.3894 23.808C91.2534 23.808 88.6294 24.864 86.5174 26.976C84.4694 29.088 82.9014 32 81.8134 35.712C80.7894 39.424 80.2774 43.648 80.2774 48.384C80.2774 51.776 80.5334 54.912 81.0454 57.792C81.6214 60.672 82.4854 63.2 83.6374 65.376C84.8534 67.552 86.3574 69.248 88.1494 70.464C89.9414 71.616 92.0214 72.192 94.3894 72.192C96.6934 72.192 98.7094 71.616 100.437 70.464C102.229 69.248 103.733 67.584 104.949 65.472C106.165 63.296 107.061 60.768 107.637 57.888C108.213 54.944 108.501 51.776 108.501 48.384C108.501 44.8 108.213 41.536 107.637 38.592C107.061 35.584 106.197 32.992 105.045 30.816C103.893 28.576 102.421 26.848 100.629 25.632C98.8374 24.416 96.7574 23.808 94.3894 23.808ZM132.272 73.44V4.8H126.416V3.744L142.832 0.479994V37.632L143.6 38.4C144.496 36.288 145.52 34.304 146.672 32.448C147.888 30.528 149.296 28.832 150.896 27.36C152.496 25.888 154.256 24.736 156.176 23.904C158.16 23.008 160.304 22.56 162.608 22.56C165.616 22.56 168.24 23.168 170.48 24.384C172.784 25.6 174.672 27.296 176.144 29.472C177.68 31.648 178.8 34.208 179.504 37.152C180.272 40.032 180.656 43.2 180.656 46.656C180.656 51.264 180.048 55.264 178.832 58.656C177.616 61.984 175.888 64.768 173.648 67.008C171.472 69.184 168.912 70.816 165.968 71.904C163.088 72.928 159.952 73.44 156.56 73.44C154.448 73.44 152.432 73.184 150.512 72.672C148.656 72.16 146.928 71.456 145.328 70.56C143.792 69.664 142.352 68.608 141.008 67.392C139.728 66.176 138.608 64.832 137.648 63.36H136.688L133.232 73.44H132.272ZM156.176 72C159.12 72 161.616 71.008 163.664 69.024C165.712 66.976 167.248 64.16 168.272 60.576C169.36 56.992 169.904 52.832 169.904 48.096C169.904 43.424 169.456 39.52 168.56 36.384C167.728 33.248 166.416 30.88 164.624 29.28C162.896 27.68 160.72 26.88 158.096 26.88C156.112 26.88 154.128 27.616 152.144 29.088C150.16 30.496 148.368 32.48 146.768 35.04C145.168 37.6 143.856 40.608 142.832 44.064V55.2C142.832 58.144 143.248 60.704 144.08 62.88C144.976 64.992 146.096 66.72 147.44 68.064C148.784 69.408 150.224 70.4 151.76 71.04C153.36 71.68 154.832 72 156.176 72ZM189.336 72V71.04L194.616 69.888V26.88H188.76V25.824L205.176 22.56V37.824L205.944 38.592C206.904 36.416 207.832 34.464 208.728 32.736C209.624 31.008 210.52 29.568 211.416 28.416C213.016 26.368 214.68 24.896 216.408 24C218.2 23.04 220.152 22.56 222.264 22.56C223.736 22.56 225.08 22.848 226.296 23.424C227.576 24 228.6 24.864 229.368 26.016C230.2 27.104 230.616 28.512 230.616 30.24C230.616 31.52 230.264 32.704 229.56 33.792C228.92 34.88 227.992 35.776 226.776 36.48C225.56 37.12 224.088 37.44 222.36 37.44C220.824 37.44 219.448 37.184 218.232 36.672C217.016 36.096 216.056 35.328 215.352 34.368C214.712 33.408 214.392 32.352 214.392 31.2C214.392 30.688 214.424 30.272 214.488 29.952C214.616 29.568 214.712 29.216 214.776 28.896C214.84 28.512 214.872 28.224 214.872 28.032C214.872 27.584 214.712 27.36 214.392 27.36C213.752 27.36 212.984 27.936 212.088 29.088C211.256 30.176 210.296 31.808 209.208 33.984C208.504 35.264 207.8 36.8 207.096 38.592C206.392 40.384 205.752 42.24 205.176 44.16V69.888L210.552 71.04V72H189.336ZM261.943 22.56C265.655 22.56 268.823 23.008 271.447 23.904C274.135 24.736 276.343 26.048 278.071 27.84C279.799 29.632 281.047 31.904 281.815 34.656C282.583 37.344 282.967 40.544 282.967 44.256V68.64C282.967 69.6 283.159 70.304 283.543 70.752C283.991 71.2 284.567 71.424 285.271 71.424C286.039 71.424 286.903 71.2 287.863 70.752C288.887 70.304 289.879 69.728 290.839 69.024V70.08C290.071 70.784 289.143 71.392 288.055 71.904C287.031 72.416 285.943 72.8 284.791 73.056C283.639 73.312 282.519 73.44 281.431 73.44C278.615 73.44 276.407 72.704 274.807 71.232C273.207 69.696 272.407 67.232 272.407 63.84C272.407 62.56 272.407 61.632 272.407 61.056C272.407 60.416 272.407 59.936 272.407 59.616C272.407 59.296 272.407 58.944 272.407 58.56L271.639 57.984C270.423 60.416 268.951 62.592 267.223 64.512C265.559 66.432 263.671 68.064 261.559 69.408C259.511 70.688 257.399 71.68 255.223 72.384C253.047 73.088 250.871 73.44 248.695 73.44C246.327 73.44 244.183 73.024 242.263 72.192C240.343 71.424 238.807 70.272 237.655 68.736C236.503 67.136 235.927 65.184 235.927 62.88C235.927 57.44 239.031 53.312 245.239 50.496C251.447 47.616 260.503 46.176 272.407 46.176C272.407 40.736 271.991 36.448 271.159 33.312C270.327 30.112 268.887 27.808 266.839 26.4C264.791 24.992 261.975 24.288 258.391 24.288C256.023 24.288 253.911 24.512 252.055 24.96C250.263 25.344 248.855 25.824 247.831 26.4C246.871 26.976 246.391 27.488 246.391 27.936C246.391 28.256 246.679 28.608 247.255 28.992C247.895 29.312 249.015 29.792 250.615 30.432C253.559 31.584 255.031 33.216 255.031 35.328C255.031 37.248 254.199 38.72 252.535 39.744C250.871 40.704 248.855 41.184 246.487 41.184C244.183 41.184 242.199 40.672 240.535 39.648C238.935 38.624 238.135 37.152 238.135 35.232C238.135 33.696 238.775 32.192 240.055 30.72C241.399 29.184 243.159 27.808 245.335 26.592C247.575 25.376 250.103 24.416 252.919 23.712C255.799 22.944 258.807 22.56 261.943 22.56ZM272.407 47.328C266.327 47.328 261.303 48 257.335 49.344C253.367 50.624 250.423 52.384 248.503 54.624C246.583 56.864 245.623 59.36 245.623 62.112C245.623 63.776 245.943 65.152 246.583 66.24C247.287 67.264 248.215 68.032 249.367 68.544C250.519 69.056 251.831 69.312 253.303 69.312C254.903 69.312 256.599 69.024 258.391 68.448C260.247 67.808 262.071 66.848 263.863 65.568C265.655 64.288 267.287 62.688 268.759 60.768C270.295 58.784 271.511 56.448 272.407 53.76V47.328Z" fill="url(#paint0_linear_214_53)"/>
<defs>
<linearGradient id="paint0_linear_214_53" x1="144" y1="-14" x2="144" y2="86" gradientUnits="userSpaceOnUse">
<stop stop-color="#7AFFC5"/>
<stop offset="1" stop-color="#497C9E"/>
</linearGradient>
</defs>
</svg>
