<svg width="37" height="37" viewBox="0 0 37 37" fill="none" xmlns="http://www.w3.org/2000/svg">
<g filter="url(#filter0_f_99_45)">
<path d="M6.9 30.1H30.1V33H6.9V30.1ZM31.55 8.35C31.1654 8.35 30.7966 8.50277 30.5247 8.7747C30.2528 9.04662 30.1 9.41544 30.1 9.8C30.1003 9.96475 30.1317 10.128 30.1928 10.281C30.2524 10.429 30.3338 10.5673 30.4343 10.6913L27.3622 13.1456L24.29 15.6L21.7486 11.1449L19.2072 6.68975C19.4251 6.56604 19.6088 6.39024 19.7421 6.17809C19.8784 5.95972 19.9504 5.7074 19.95 5.45C19.95 5.06544 19.7972 4.69662 19.5253 4.4247C19.2534 4.15277 18.8846 4 18.5 4C18.1154 4 17.7466 4.15277 17.4747 4.4247C17.2028 4.69662 17.05 5.06544 17.05 5.45C17.0496 5.70726 17.1216 5.95944 17.2578 6.17771C17.3909 6.38977 17.5745 6.56556 17.7922 6.68937L15.2477 11.1447L12.7031 15.6L9.63419 13.1459L6.5653 10.6918C6.66592 10.5678 6.74742 10.4294 6.80709 10.2813C6.86822 10.1282 6.89974 9.96486 6.9 9.8C6.9 9.51322 6.81496 9.23287 6.65563 8.99442C6.4963 8.75597 6.26985 8.57012 6.00489 8.46037C5.73994 8.35063 5.44839 8.32191 5.16712 8.37786C4.88585 8.43381 4.62748 8.57191 4.4247 8.7747C4.22191 8.97748 4.08381 9.23585 4.02786 9.51712C3.97191 9.79839 4.00063 10.0899 4.11038 10.3549C4.22012 10.6198 4.40597 10.8463 4.64442 11.0056C4.88288 11.165 5.16322 11.25 5.45 11.25C5.47032 11.2493 5.49045 11.2457 5.50976 11.2393C5.52898 11.233 5.5488 11.2285 5.5689 11.226L6.23445 19.213L6.9 27.2H30.1L30.7656 19.213L31.4311 11.226C31.4512 11.2285 31.471 11.233 31.4902 11.2393C31.5095 11.2457 31.5297 11.2493 31.55 11.25C31.9346 11.25 32.3034 11.0972 32.5753 10.8253C32.8472 10.5534 33 10.1846 33 9.8C33 9.41544 32.8472 9.04662 32.5753 8.7747C32.3034 8.50277 31.9346 8.35 31.55 8.35Z" fill="#129379"/>
</g>
<path d="M7.9 30.1H31.1V33H7.9V30.1ZM32.55 8.35C32.1654 8.35 31.7966 8.50277 31.5247 8.7747C31.2528 9.04662 31.1 9.41544 31.1 9.8C31.1003 9.96475 31.1317 10.128 31.1928 10.281C31.2524 10.429 31.3338 10.5673 31.4343 10.6913L28.3622 13.1456L25.29 15.6L22.7486 11.1449L20.2072 6.68975C20.4251 6.56604 20.6088 6.39024 20.7421 6.17809C20.8784 5.95972 20.9504 5.7074 20.95 5.45C20.95 5.06544 20.7972 4.69662 20.5253 4.4247C20.2534 4.15277 19.8846 4 19.5 4C19.1154 4 18.7466 4.15277 18.4747 4.4247C18.2028 4.69662 18.05 5.06544 18.05 5.45C18.0496 5.70726 18.1216 5.95944 18.2578 6.17771C18.3909 6.38977 18.5745 6.56556 18.7922 6.68937L16.2477 11.1447L13.7031 15.6L10.6342 13.1459L7.5653 10.6918C7.66592 10.5678 7.74742 10.4294 7.80709 10.2813C7.86822 10.1282 7.89974 9.96486 7.9 9.8C7.9 9.51322 7.81496 9.23287 7.65563 8.99442C7.4963 8.75597 7.26985 8.57012 7.00489 8.46037C6.73994 8.35063 6.44839 8.32191 6.16712 8.37786C5.88585 8.43381 5.62748 8.57191 5.4247 8.7747C5.22191 8.97748 5.08381 9.23585 5.02786 9.51712C4.97191 9.79839 5.00063 10.0899 5.11038 10.3549C5.22012 10.6198 5.40597 10.8463 5.64442 11.0056C5.88288 11.165 6.16322 11.25 6.45 11.25C6.47032 11.2493 6.49045 11.2457 6.50976 11.2393C6.52898 11.233 6.5488 11.2285 6.5689 11.226L7.23445 19.213L7.9 27.2H31.1L31.7656 19.213L32.4311 11.226C32.4512 11.2285 32.471 11.233 32.4902 11.2393C32.5095 11.2457 32.5297 11.2493 32.55 11.25C32.9346 11.25 33.3034 11.0972 33.5753 10.8253C33.8472 10.5534 34 10.1846 34 9.8C34 9.41544 33.8472 9.04662 33.5753 8.7747C33.3034 8.50277 32.9346 8.35 32.55 8.35Z" fill="#E0F4F5"/>
<defs>
<filter id="filter0_f_99_45" x="0" y="0" width="37" height="37" filterUnits="userSpaceOnUse" color-interpolation-filters="sRGB">
<feFlood flood-opacity="0" result="BackgroundImageFix"/>
<feBlend mode="normal" in="SourceGraphic" in2="BackgroundImageFix" result="shape"/>
<feGaussianBlur stdDeviation="2" result="effect1_foregroundBlur_99_45"/>
</filter>
</defs>
</svg>
