<svg width="17" height="17" viewBox="0 0 17 17" fill="none" xmlns="http://www.w3.org/2000/svg">
<path fill-rule="evenodd" clip-rule="evenodd" d="M15.3 0H1.7C0.765 0 0 0.85 0 1.88889V15.1111C0 16.15 0.765 17 1.7 17H15.3C16.235 17 17 16.15 17 15.1111V1.88889C17 0.85 16.235 0 15.3 0ZM15.3 15.1111H1.7V1.88889H15.3V15.1111Z" fill="#ADC7D8"/>
<path fill-rule="evenodd" clip-rule="evenodd" d="M14.8005 7.00786L13.5935 5.66675L10.899 8.66064L9.70045 7.31953L8.50195 8.65119L10.899 11.3334L14.8005 7.00786Z" fill="#ADC7D8"/>
<path d="M6.79883 3.77783H2.54883V5.66672H6.79883V3.77783Z" fill="#ADC7D8"/>
<path d="M6.79883 7.55566H2.54883V9.44455H6.79883V7.55566Z" fill="#ADC7D8"/>
<path d="M6.79883 11.3335H2.54883V13.2224H6.79883V11.3335Z" fill="#ADC7D8"/>
</svg>
