<svg width="40" height="40" viewBox="0 0 40 40" fill="none" xmlns="http://www.w3.org/2000/svg">
<g filter="url(#filter0_d_95_517)">
<path d="M6 30C6 31.1055 6.8945 32 8 32H18V18H6V30Z" fill="#CE9F71"/>
<path d="M22 32H32C33.1055 32 34 31.1055 34 30V18H22V32Z" fill="#CE9F71"/>
<path d="M34 6H30C30 2.6855 27.3145 0 24 0C22.457 0 21.0625 0.5995 20 1.5565C18.9375 0.5995 17.543 0 16 0C12.6855 0 10 2.6855 10 6H6C4.8945 6 4 6.8945 4 8V12C4 13.1055 4.8945 14 6 14H18V6H14C14 4.8945 14.8945 4 16 4C17.1055 4 18 4.8945 18 6H22C22 4.8945 22.8945 4 24 4C25.1055 4 26 4.8945 26 6H22V14H34C35.1055 14 36 13.1055 36 12V8C36 6.8945 35.1055 6 34 6Z" fill="#CE9F71"/>
</g>
<defs>
<filter id="filter0_d_95_517" x="0" y="0" width="40" height="40" filterUnits="userSpaceOnUse" color-interpolation-filters="sRGB">
<feFlood flood-opacity="0" result="BackgroundImageFix"/>
<feColorMatrix in="SourceAlpha" type="matrix" values="0 0 0 0 0 0 0 0 0 0 0 0 0 0 0 0 0 0 127 0" result="hardAlpha"/>
<feOffset dy="4"/>
<feGaussianBlur stdDeviation="2"/>
<feComposite in2="hardAlpha" operator="out"/>
<feColorMatrix type="matrix" values="0 0 0 0 0 0 0 0 0 0 0 0 0 0 0 0 0 0 0.25 0"/>
<feBlend mode="normal" in2="BackgroundImageFix" result="effect1_dropShadow_95_517"/>
<feBlend mode="normal" in="SourceGraphic" in2="effect1_dropShadow_95_517" result="shape"/>
</filter>
</defs>
</svg>
