<svg width="50" height="50" viewBox="0 0 50 50" fill="none" xmlns="http://www.w3.org/2000/svg">
<g filter="url(#filter0_d_95_498)">
<path d="M6.625 39.375C6.625 40.826 7.79903 42 9.25 42H22.375V23.625H6.625V39.375Z" fill="#7AFFC5"/>
<path d="M27.625 42H40.75C42.201 42 43.375 40.826 43.375 39.375V23.625H27.625V42Z" fill="#7AFFC5"/>
<path d="M43.375 7.875H38.125C38.125 3.52472 34.6003 0 30.25 0C28.2248 0 26.3945 0.786844 25 2.04291C23.6055 0.786844 21.7752 0 19.75 0C15.3997 0 11.875 3.52472 11.875 7.875H6.625C5.17403 7.875 4 9.04903 4 10.5V15.75C4 17.201 5.17403 18.375 6.625 18.375H22.375V7.875H17.125C17.125 6.42403 18.299 5.25 19.75 5.25C21.201 5.25 22.375 6.42403 22.375 7.875H27.625C27.625 6.42403 28.799 5.25 30.25 5.25C31.701 5.25 32.875 6.42403 32.875 7.875H27.625V18.375H43.375C44.826 18.375 46 17.201 46 15.75V10.5C46 9.04903 44.826 7.875 43.375 7.875Z" fill="#7AFFC5"/>
</g>
<defs>
<filter id="filter0_d_95_498" x="0" y="0" width="50" height="50" filterUnits="userSpaceOnUse" color-interpolation-filters="sRGB">
<feFlood flood-opacity="0" result="BackgroundImageFix"/>
<feColorMatrix in="SourceAlpha" type="matrix" values="0 0 0 0 0 0 0 0 0 0 0 0 0 0 0 0 0 0 127 0" result="hardAlpha"/>
<feOffset dy="4"/>
<feGaussianBlur stdDeviation="2"/>
<feComposite in2="hardAlpha" operator="out"/>
<feColorMatrix type="matrix" values="0 0 0 0 0 0 0 0 0 0 0 0 0 0 0 0 0 0 0.25 0"/>
<feBlend mode="normal" in2="BackgroundImageFix" result="effect1_dropShadow_95_498"/>
<feBlend mode="normal" in="SourceGraphic" in2="effect1_dropShadow_95_498" result="shape"/>
</filter>
</defs>
</svg>
