<svg width="17" height="17" viewBox="0 0 17 17" fill="none" xmlns="http://www.w3.org/2000/svg">
<path d="M1.7 8.5C1.7 4.7515 4.7515 1.7 8.5 1.7C12.2485 1.7 15.3 4.7515 15.3 8.5C15.3 12.2485 12.2485 15.3 8.5 15.3C4.7515 15.3 1.7 12.2485 1.7 8.5ZM-3.71547e-07 8.5C-5.76641e-07 13.192 3.808 17 8.5 17C13.192 17 17 13.192 17 8.5C17 3.808 13.192 -1.66453e-07 8.5 -3.71547e-07C3.808 -5.76641e-07 -1.66453e-07 3.808 -3.71547e-07 8.5ZM8.5 7.65L5.1 7.65L5.1 9.35L8.5 9.35L8.5 11.9L11.9 8.5L8.5 5.1L8.5 7.65Z" fill="#7AFFC5"/>
</svg>
