<svg width="19" height="8" viewBox="0 0 19 8" fill="none" xmlns="http://www.w3.org/2000/svg">
<path d="M14.725 0C13.585 0 12.5083 0.416357 11.7404 1.13755L9.5 3.00372L8.29667 4H8.30458L6.175 5.77695C5.66833 6.25279 4.99542 6.51301 4.275 6.51301C2.79458 6.51301 1.59125 5.39034 1.59125 4C1.59125 2.60967 2.79458 1.48699 4.275 1.48699C4.99542 1.48699 5.66833 1.74721 6.20667 2.25279L7.10125 2.99628L8.29667 2L7.29917 1.17472C6.49167 0.416357 5.415 0 4.275 0C1.91583 0 0 1.79926 0 4C0 6.20074 1.91583 8 4.275 8C5.415 8 6.49167 7.58364 7.25958 6.86245L9.5 5.00372L9.50792 5.01115L10.7033 4H10.6954L12.825 2.22305C13.3317 1.74721 14.0046 1.48699 14.725 1.48699C16.2054 1.48699 17.4088 2.60967 17.4088 4C17.4088 5.39034 16.2054 6.51301 14.725 6.51301C14.0125 6.51301 13.3317 6.25279 12.7933 5.74721L11.8908 4.99628L10.6954 5.99257L11.7008 6.82528C12.5083 7.57621 13.5771 7.99257 14.725 7.99257C17.0842 7.99257 19 6.20074 19 3.99257C19 1.78439 17.0842 0 14.725 0Z" fill="#ADC7D8"/>
</svg>
