<svg width="42" height="43" viewBox="0 0 42 43" fill="none" xmlns="http://www.w3.org/2000/svg">
<g filter="url(#filter0_f_99_43)">
<path d="M19.2192 6.56672C19.625 5.67365 19.828 5.22711 20.1105 5.0896C20.3559 4.97013 20.6441 4.97013 20.8895 5.0896C21.1721 5.22711 21.3751 5.67365 21.7809 6.56672L25.0132 13.6801C25.1332 13.9441 25.1932 14.0762 25.2861 14.1772C25.3681 14.2667 25.4686 14.3382 25.5806 14.3872C25.7073 14.4426 25.8539 14.4577 26.1469 14.4881L34.0425 15.3055C35.0337 15.4082 35.5293 15.4595 35.7499 15.6806C35.9415 15.8726 36.0306 16.1416 35.9906 16.4075C35.9447 16.7135 35.5745 17.0407 34.8341 17.6954L28.9361 22.9092C28.7174 23.1026 28.6078 23.1994 28.5386 23.3172C28.4772 23.4216 28.4388 23.5373 28.426 23.657C28.4115 23.7923 28.442 23.9337 28.5032 24.2165L30.1505 31.8351C30.3574 32.7916 30.4608 33.2698 30.3146 33.5439C30.1875 33.7822 29.9544 33.9483 29.6843 33.9932C29.3733 34.0448 28.9416 33.8006 28.0781 33.3121L21.2006 29.4209C20.9454 29.2765 20.8178 29.2044 20.6821 29.1761C20.5621 29.1511 20.438 29.1511 20.3179 29.1761C20.1822 29.2044 20.0546 29.2765 19.7994 29.4209L12.922 33.3121C12.0585 33.8006 11.6268 34.0448 11.3158 33.9932C11.0457 33.9483 10.8125 33.7822 10.6855 33.5439C10.5394 33.2698 10.6428 32.7916 10.8496 31.8351L12.4969 24.2165C12.558 23.9337 12.5886 23.7923 12.5741 23.657C12.5612 23.5373 12.5229 23.4216 12.4615 23.3172C12.3922 23.1994 12.2828 23.1026 12.0639 22.9092L6.16608 17.6954C5.42564 17.0407 5.05542 16.7135 5.00938 16.4075C4.96942 16.1416 5.05848 15.8726 5.25014 15.6806C5.4708 15.4595 5.96642 15.4082 6.95768 15.3055L14.8532 14.4881C15.1462 14.4577 15.2927 14.4426 15.4194 14.3872C15.5315 14.3382 15.6319 14.2667 15.714 14.1772C15.8069 14.0762 15.8668 13.9441 15.9868 13.6801L19.2192 6.56672Z" stroke="#129379" stroke-width="2" stroke-linecap="round" stroke-linejoin="round"/>
</g>
<g filter="url(#filter1_d_99_43)">
<path d="M20.2192 6.56672C20.625 5.67365 20.828 5.22711 21.1105 5.0896C21.3559 4.97013 21.6441 4.97013 21.8895 5.0896C22.1721 5.22711 22.3751 5.67365 22.7809 6.56672L26.0132 13.6801C26.1332 13.9441 26.1932 14.0762 26.2861 14.1772C26.3681 14.2667 26.4686 14.3382 26.5806 14.3872C26.7073 14.4426 26.8539 14.4577 27.1469 14.4881L35.0425 15.3055C36.0337 15.4082 36.5293 15.4595 36.7499 15.6806C36.9415 15.8726 37.0306 16.1416 36.9906 16.4075C36.9447 16.7135 36.5745 17.0407 35.8341 17.6954L29.9361 22.9092C29.7174 23.1026 29.6078 23.1994 29.5386 23.3172C29.4772 23.4216 29.4388 23.5373 29.426 23.657C29.4115 23.7923 29.442 23.9337 29.5032 24.2165L31.1505 31.8351C31.3574 32.7916 31.4608 33.2698 31.3146 33.5439C31.1875 33.7822 30.9544 33.9483 30.6843 33.9932C30.3733 34.0448 29.9416 33.8006 29.0781 33.3121L22.2006 29.4209C21.9454 29.2765 21.8178 29.2044 21.6821 29.1761C21.5621 29.1511 21.438 29.1511 21.3179 29.1761C21.1822 29.2044 21.0546 29.2765 20.7994 29.4209L13.922 33.3121C13.0585 33.8006 12.6268 34.0448 12.3158 33.9932C12.0457 33.9483 11.8125 33.7822 11.6855 33.5439C11.5394 33.2698 11.6428 32.7916 11.8496 31.8351L13.4969 24.2165C13.558 23.9337 13.5886 23.7923 13.5741 23.657C13.5612 23.5373 13.5229 23.4216 13.4615 23.3172C13.3922 23.1994 13.2828 23.1026 13.0639 22.9092L7.16608 17.6954C6.42564 17.0407 6.05542 16.7135 6.00938 16.4075C5.96942 16.1416 6.05848 15.8726 6.25014 15.6806C6.4708 15.4595 6.96642 15.4082 7.95768 15.3055L15.8532 14.4881C16.1462 14.4577 16.2927 14.4426 16.4194 14.3872C16.5315 14.3382 16.6319 14.2667 16.714 14.1772C16.8069 14.0762 16.8668 13.9441 16.9868 13.6801L20.2192 6.56672Z" stroke="#E0F4F5" stroke-width="2" stroke-linecap="round" stroke-linejoin="round" shape-rendering="crispEdges"/>
</g>
<defs>
<filter id="filter0_f_99_43" x="0" y="0" width="41" height="38.9999" filterUnits="userSpaceOnUse" color-interpolation-filters="sRGB">
<feFlood flood-opacity="0" result="BackgroundImageFix"/>
<feBlend mode="normal" in="SourceGraphic" in2="BackgroundImageFix" result="shape"/>
<feGaussianBlur stdDeviation="2" result="effect1_foregroundBlur_99_43"/>
</filter>
<filter id="filter1_d_99_43" x="1" y="4" width="41" height="38.9999" filterUnits="userSpaceOnUse" color-interpolation-filters="sRGB">
<feFlood flood-opacity="0" result="BackgroundImageFix"/>
<feColorMatrix in="SourceAlpha" type="matrix" values="0 0 0 0 0 0 0 0 0 0 0 0 0 0 0 0 0 0 127 0" result="hardAlpha"/>
<feOffset dy="4"/>
<feGaussianBlur stdDeviation="2"/>
<feComposite in2="hardAlpha" operator="out"/>
<feColorMatrix type="matrix" values="0 0 0 0 0 0 0 0 0 0 0 0 0 0 0 0 0 0 0.25 0"/>
<feBlend mode="normal" in2="BackgroundImageFix" result="effect1_dropShadow_99_43"/>
<feBlend mode="normal" in="SourceGraphic" in2="effect1_dropShadow_99_43" result="shape"/>
</filter>
</defs>
</svg>
