<svg width="20" height="20" viewBox="0 0 20 20" fill="none" xmlns="http://www.w3.org/2000/svg">
<path d="M10 0C6.50699 0 3.68421 0.777241 3.68421 4.20146V6.06942H1.57895C0.684622 6.06942 0 6.74055 0 7.61726V18.4521C0 19.3289 0.684622 20 1.57895 20L18.4211 20C19.3154 20 20 19.3289 20 18.4521V7.61726C20 6.74055 19.3154 6.06942 18.4211 6.06942H16.3158V4.20147C16.3158 0.777257 13.493 0 10 0ZM10 0.847815C12.9297 0.847815 15.2632 1.32947 15.2632 4.20146V6.06942H4.73684V4.20146C4.73684 1.32947 7.07031 0.847815 10 0.847815ZM10 10.7129C10.8943 10.7129 11.5789 11.384 11.5789 12.2608C11.5789 12.7243 11.3692 13.1314 11.0526 13.3894V14.8405C11.0526 15.4088 10.5798 15.8724 10 15.8724C9.42023 15.8724 8.94737 15.4088 8.94737 14.8405V13.3894C8.63076 13.1314 8.42105 12.7243 8.42105 12.2608C8.42105 11.384 9.10567 10.7129 10 10.7129Z" fill="black"/>
</svg>
