<svg width="14" height="17" viewBox="0 0 14 17" fill="none" xmlns="http://www.w3.org/2000/svg">
<path d="M10.7043 5.40909C8.88429 5.40909 7.41016 6.79227 7.41016 8.5C7.41016 10.2077 8.88429 11.5909 10.7043 11.5909C12.5243 11.5909 13.9985 10.2077 13.9985 8.5C13.9985 6.79227 12.5243 5.40909 10.7043 5.40909ZM8.64547 8.5C8.64547 7.43363 9.56783 6.56818 10.7043 6.56818C11.0502 6.56818 11.3632 6.65318 11.6514 6.79227L8.88429 9.38863C8.73606 9.11818 8.64547 8.82454 8.64547 8.5ZM10.7043 10.4318C10.3584 10.4318 10.0455 10.3468 9.75725 10.2077L12.5243 7.61136C12.6726 7.88182 12.7632 8.17545 12.7632 8.5C12.7632 9.56636 11.8408 10.4318 10.7043 10.4318Z" fill="#E0F4F5"/>
<path d="M9.88249 13.1364H1.64708V3.86364H9.88249V4.63636H11.5296V3.86364V3.09091V1.54545C11.5296 0.695454 10.7884 0 9.88249 0H1.64708C0.741186 0 0 0.695454 0 1.54545V15.4545C0 16.3045 0.741186 17 1.64708 17H9.88249C10.7884 17 11.5296 16.3045 11.5296 15.4545V13.9091V13.1364V12.3636H9.88249V13.1364ZM1.64708 1.54545H9.88249V2.31818H1.64708V1.54545ZM9.88249 15.4545H1.64708V14.6818H9.88249V15.4545Z" fill="#E0F4F5"/>
</svg>
