<svg width="22" height="20" viewBox="0 0 22 20" fill="none" xmlns="http://www.w3.org/2000/svg">
<path d="M10.1737 1.97244C10.4355 1.41812 10.5664 1.14097 10.7487 1.05562C10.9071 0.981462 11.093 0.981462 11.2513 1.05562C11.4336 1.14097 11.5646 1.41812 11.8264 1.97244L13.9117 6.38767C13.9892 6.55154 14.0279 6.63347 14.0878 6.69622C14.1407 6.75174 14.2055 6.79615 14.2778 6.82654C14.3596 6.86091 14.4541 6.87032 14.6432 6.88915L19.7371 7.39654C20.3766 7.46023 20.6963 7.49208 20.8387 7.62932C20.9623 7.74852 21.0197 7.91545 20.9939 8.08049C20.9643 8.27046 20.7255 8.47356 20.2478 8.87987L16.4427 12.1161C16.3015 12.2361 16.2308 12.2962 16.1862 12.3693C16.1466 12.4341 16.1218 12.5059 16.1136 12.5802C16.1042 12.6642 16.1239 12.7519 16.1633 12.9275L17.2261 17.6563C17.3596 18.25 17.4263 18.5468 17.332 18.7169C17.25 18.8648 17.0996 18.9679 16.9253 18.9958C16.7247 19.0278 16.4462 18.8763 15.8891 18.573L11.452 16.1578C11.2874 16.0682 11.205 16.0234 11.1175 16.0058C11.04 15.9904 10.96 15.9904 10.8825 16.0058C10.795 16.0234 10.7127 16.0682 10.548 16.1578L6.11095 18.573C5.5539 18.8763 5.27537 19.0278 5.07474 18.9958C4.90046 18.9679 4.75 18.8648 4.66808 18.7169C4.57378 18.5468 4.64049 18.25 4.77392 17.6563L5.83669 12.9275C5.87614 12.7519 5.89586 12.6642 5.88649 12.5802C5.8782 12.5059 5.85347 12.4341 5.81389 12.3693C5.76916 12.2962 5.69855 12.2361 5.55734 12.1161L1.75231 8.87987C1.27461 8.47356 1.03575 8.27046 1.00605 8.08049C0.98027 7.91545 1.03773 7.74852 1.16138 7.62932C1.30374 7.49208 1.6235 7.46023 2.26302 7.39654L7.35689 6.88915C7.54596 6.87032 7.64048 6.86091 7.72222 6.82654C7.79454 6.79615 7.85929 6.75174 7.91229 6.69622C7.97217 6.63347 8.01087 6.55154 8.08828 6.38767L10.1737 1.97244Z" stroke="black" stroke-linecap="round" stroke-linejoin="round"/>
</svg>
