<svg width="39" height="36" viewBox="0 0 39 36" fill="none" xmlns="http://www.w3.org/2000/svg">
<path d="M18.0539 3.72879C18.5121 2.74333 18.7412 2.2506 19.0603 2.09887C19.3373 1.96704 19.6627 1.96704 19.9398 2.09887C20.2588 2.2506 20.488 2.74333 20.9461 3.72879L24.5955 11.5781C24.7311 11.8694 24.7988 12.0151 24.9037 12.1266C24.9963 12.2253 25.1097 12.3043 25.2361 12.3583C25.3792 12.4194 25.5447 12.4361 25.8756 12.4696L34.7899 13.3716C35.909 13.4849 36.4685 13.5415 36.7177 13.7855C36.934 13.9974 37.0345 14.2941 36.9894 14.5875C36.9375 14.9253 36.5196 15.2863 35.6836 16.0087L29.0247 21.7619C28.7777 21.9753 28.654 22.0822 28.5758 22.2121C28.5065 22.3273 28.4632 22.455 28.4488 22.587C28.4323 22.7364 28.4668 22.8923 28.5358 23.2044L30.3958 31.6111C30.6293 32.6666 30.746 33.1943 30.581 33.4967C30.4375 33.7597 30.1743 33.943 29.8693 33.9925C29.5182 34.0494 29.0308 33.78 28.0559 33.241L20.2911 28.9472C20.0029 28.7878 19.8588 28.7083 19.7056 28.677C19.5701 28.6495 19.43 28.6495 19.2944 28.677C19.1412 28.7083 18.9971 28.7878 18.709 28.9472L10.9442 33.241C9.96932 33.78 9.4819 34.0494 9.13079 33.9925C8.8258 33.943 8.5625 33.7597 8.41914 33.4967C8.25411 33.1943 8.37085 32.6666 8.60436 31.6111L10.4642 23.2044C10.5332 22.8923 10.5678 22.7364 10.5514 22.587C10.5369 22.455 10.4936 22.3273 10.4243 22.2121C10.346 22.0822 10.2225 21.9753 9.97534 21.7619L3.31654 16.0087C2.48056 15.2863 2.06257 14.9253 2.0106 14.5875C1.96547 14.2941 2.06603 13.9974 2.28242 13.7855C2.53154 13.5415 3.09112 13.4849 4.21029 13.3716L13.1246 12.4696C13.4554 12.4361 13.6208 12.4194 13.7639 12.3583C13.8904 12.3043 14.0038 12.2253 14.0965 12.1266C14.2013 12.0151 14.269 11.8694 14.4045 11.5781L18.0539 3.72879Z" stroke="black" stroke-width="3" stroke-linecap="round" stroke-linejoin="round"/>
</svg>
