<svg width="15" height="17" viewBox="0 0 15 17" fill="none" xmlns="http://www.w3.org/2000/svg">
<path d="M7.50133 2.69414V0L3.75195 3.59218L7.50133 7.18436V4.49023C10.6039 4.49023 13.1254 6.90597 13.1254 9.8785C13.1254 12.5457 11.0914 14.7549 8.43867 15.1859V17C12.1412 16.56 15.0001 13.5425 15.0001 9.8785C15.0001 5.90914 11.6444 2.69414 7.50133 2.69414Z" fill="#E0F4F5"/>
<path d="M1.87469 9.87835C1.87469 8.39657 2.50271 7.0495 3.52441 6.07063L2.19338 4.79541C0.843609 6.09758 0 7.89367 0 9.87835C0 13.5424 2.8589 16.5598 6.5614 16.9998V15.1858C3.90872 14.7547 1.87469 12.5455 1.87469 9.87835Z" fill="#E0F4F5"/>
</svg>
