<svg width="22" height="22" viewBox="0 0 22 22" fill="none" xmlns="http://www.w3.org/2000/svg">
<mask id="path-1-inside-1_561_505" fill="white">
<path d="M10 2H2.22222C1.63285 2 1.06762 2.23413 0.650874 2.65087C0.234126 3.06762 0 3.63285 0 4.22222V19.7778C0 20.3671 0.234126 20.9324 0.650874 21.3491C1.06762 21.7659 1.63285 22 2.22222 22H17.7778C18.3671 22 18.9324 21.7659 19.3491 21.3491C19.7659 20.9324 20 20.3671 20 19.7778V12"/>
</mask>
<path d="M10 3C10.5523 3 11 2.55228 11 2C11 1.44772 10.5523 1 10 1V3ZM2.22222 2V1V2ZM0 4.22222H-1H0ZM0 19.7778H-1H0ZM21 12C21 11.4477 20.5523 11 20 11C19.4477 11 19 11.4477 19 12H21ZM10 1H2.22222V3H10V1ZM2.22222 1C1.36764 1 0.548051 1.33948 -0.056233 1.94377L1.35798 3.35798C1.58719 3.12877 1.89807 3 2.22222 3V1ZM-0.056233 1.94377C-0.660517 2.54805 -1 3.36764 -1 4.22222H1C1 3.89807 1.12877 3.58719 1.35798 3.35798L-0.056233 1.94377ZM-1 4.22222V19.7778H1V4.22222H-1ZM-1 19.7778C-1 20.6324 -0.660517 21.452 -0.056233 22.0562L1.35798 20.642C1.12877 20.4128 1 20.1019 1 19.7778H-1ZM-0.056233 22.0562C0.548051 22.6605 1.36764 23 2.22222 23V21C1.89807 21 1.58719 20.8712 1.35798 20.642L-0.056233 22.0562ZM2.22222 23H17.7778V21H2.22222V23ZM17.7778 23C18.6324 23 19.452 22.6605 20.0562 22.0562L18.642 20.642C18.4128 20.8712 18.1019 21 17.7778 21V23ZM20.0562 22.0562C20.6605 21.452 21 20.6324 21 19.7778H19C19 20.1019 18.8712 20.4128 18.642 20.642L20.0562 22.0562ZM21 19.7778V12H19V19.7778H21Z" fill="#ADC7D8" mask="url(#path-1-inside-1_561_505)"/>
<path d="M18.2505 1.05753C18.6074 0.700551 19.0916 0.5 19.5965 0.5C20.1013 0.5 20.5855 0.700551 20.9425 1.05753C21.2994 1.41452 21.5 1.89869 21.5 2.40354C21.5 2.90839 21.2994 3.39256 20.9425 3.74954L10.2765 14.4155L6.68718 15.3128L7.58452 11.7235L18.2505 1.05753Z" stroke="#ADC7D8" stroke-linecap="round" stroke-linejoin="round"/>
</svg>
