<svg width="29" height="29" viewBox="0 0 29 29" fill="none" xmlns="http://www.w3.org/2000/svg">
<path d="M3.42098 13.079C3.36135 13.543 3.31663 14.007 3.31663 14.5C3.31663 14.993 3.36135 15.457 3.42098 15.921L0.275645 18.3135C-0.00758461 18.531 -0.0821162 18.9225 0.0967645 19.2415L3.07812 24.2585C3.257 24.5775 3.65949 24.6935 3.98743 24.5775L7.69922 23.1275C8.47437 23.7075 9.30915 24.186 10.2185 24.5485L10.7849 28.391C10.8296 28.739 11.1427 29 11.5154 29L17.4781 29C17.8507 29 18.1638 28.739 18.2085 28.391L18.775 24.5485C19.6843 24.186 20.519 23.693 21.2942 23.1275L25.006 24.5775C25.3488 24.708 25.7364 24.5775 25.9153 24.2585L28.8966 19.2415C29.0904 18.9225 29.001 18.531 28.7178 18.3135L25.5724 15.921C25.6321 15.457 25.6768 14.9785 25.6768 14.5C25.6768 14.0215 25.6321 13.543 25.5724 13.079L28.7178 10.6865C29.001 10.469 29.0755 10.0775 28.8967 9.7585L25.9153 4.7415C25.7364 4.4225 25.3339 4.3065 25.006 4.4225L21.2942 5.8725C20.519 5.2925 19.6843 4.814 18.775 4.4515L18.2085 0.609C18.1638 0.261001 17.8507 9.32649e-07 17.4781 9.00069e-07L11.5154 3.78792e-07C11.1427 3.46212e-07 10.8296 0.261 10.7849 0.609L10.2185 4.4515C9.30915 4.814 8.47437 5.307 7.69922 5.8725L3.98743 4.4225C3.64458 4.292 3.257 4.4225 3.07812 4.7415L0.0967653 9.7585C-0.0821154 10.0775 -0.00758391 10.469 0.275646 10.6865L3.42098 13.079ZM14.4967 9.425C17.3737 9.425 19.7141 11.7015 19.7141 14.5C19.7141 17.2985 17.3737 19.575 14.4967 19.575C11.6197 19.575 9.27934 17.2985 9.27934 14.5C9.27934 11.7015 11.6197 9.425 14.4967 9.425Z" fill="#5B7281"/>
</svg>
