<svg width="70" height="75" viewBox="0 0 70 75" fill="none" xmlns="http://www.w3.org/2000/svg">
<path d="M70 15.9798C69.8789 14.8536 69.383 13.7931 68.584 12.9515C67.785 12.1099 66.7242 11.5308 65.555 11.298C60.6912 10.5735 55.8872 9.52575 51.1787 8.16241C46.5677 6.37073 42.2441 3.97631 38.3338 1.04883C37.3339 0.366901 36.133 0 34.9011 0C33.6691 0 32.4682 0.366901 31.4683 1.04883C27.7667 4.29255 23.3439 6.70772 18.526 8.11625C14.0649 9.86396 9.35226 10.9676 4.54549 11.3903C3.35611 11.5724 2.26937 12.1376 1.46852 12.9904C0.66767 13.8433 0.201701 14.9317 0.149182 16.0721C0.149182 16.0721 0 27.8214 0 38.1629C0 56.8843 23.3151 75 34.9756 75C46.6332 75 66.3953 62.2209 69.5555 38.4456C70.3471 24.403 69.7991 16.026 69.7991 16.026L70 15.977V15.9798ZM57.3043 30.4406L32.948 52.2054C31.8519 53.1948 30.1775 53.3506 28.8987 52.5804L28.2594 52.0641L14.8208 38.8206C14.218 38.2001 13.9001 37.3782 13.9369 36.5356C13.9737 35.693 14.3623 34.8988 15.0172 34.3277C15.672 33.7566 16.5395 33.4554 17.4288 33.4902C18.3181 33.5251 19.1563 33.8933 19.759 34.5138L30.8259 45.513L52.7588 25.854C53.0832 25.5712 53.4633 25.3518 53.8773 25.2082C54.2912 25.0645 54.731 24.9996 55.1715 25.017C55.6119 25.0344 56.0445 25.1338 56.4444 25.3096C56.8443 25.4854 57.2037 25.7341 57.5022 26.0415C57.8006 26.3489 58.0323 26.709 58.1838 27.1013C58.3354 27.4935 58.404 27.9102 58.3856 28.3275C58.3672 28.7449 58.2623 29.1547 58.0768 29.5336C57.8912 29.9125 57.6287 30.253 57.3043 30.5358V30.4406Z" fill="#7AFFC5"/>
</svg>
