<svg width="15" height="8" viewBox="0 0 15 8" fill="none" xmlns="http://www.w3.org/2000/svg">
<mask id="path-1-inside-1_695_265" fill="white">
<path d="M13.2375 -4.52402e-07L7.5 4.94467L1.7625 -1.71363e-06L7.72462e-08 1.52227L7.5 8L15 1.52227L13.2375 -4.52402e-07Z"/>
</mask>
<path d="M13.2375 -4.52402e-07L14.9806 -2.01813L13.2394 -3.52197L11.4966 -2.02001L13.2375 -4.52402e-07ZM7.5 4.94467L5.75912 6.96468L7.5 8.465L9.24088 6.96468L7.5 4.94467ZM1.7625 -1.71363e-06L3.50338 -2.02001L1.7606 -3.52197L0.0194423 -2.01814L1.7625 -1.71363e-06ZM7.72462e-08 1.52227L-1.74306 -0.495867L-4.07968 1.52227L-1.74306 3.5404L7.72462e-08 1.52227ZM7.5 8L5.75694 10.0181L7.5 11.5236L9.24306 10.0181L7.5 8ZM15 1.52227L16.7431 3.5404L19.0797 1.52227L16.7431 -0.495865L15 1.52227ZM11.4966 -2.02001L5.75912 2.92466L9.24088 6.96468L14.9784 2.02001L11.4966 -2.02001ZM9.24088 2.92466L3.50338 -2.02001L0.0216206 2.02001L5.75912 6.96468L9.24088 2.92466ZM0.0194423 -2.01814L-1.74306 -0.495867L1.74306 3.5404L3.50556 2.01813L0.0194423 -2.01814ZM-1.74306 3.5404L5.75694 10.0181L9.24306 5.98187L1.74306 -0.495868L-1.74306 3.5404ZM9.24306 10.0181L16.7431 3.5404L13.2569 -0.495866L5.75694 5.98187L9.24306 10.0181ZM16.7431 -0.495865L14.9806 -2.01813L11.4944 2.01813L13.2569 3.5404L16.7431 -0.495865Z" fill="#ADC7D8" mask="url(#path-1-inside-1_695_265)"/>
</svg>
