<svg width="22" height="22" viewBox="0 0 22 22" fill="none" xmlns="http://www.w3.org/2000/svg">
<path fill-rule="evenodd" clip-rule="evenodd" d="M11 22C17.0751 22 22 17.0751 22 11C22 4.92487 17.0751 0 11 0C4.92487 0 0 4.92487 0 11C0 17.0751 4.92487 22 11 22ZM13.919 16.4918C15.7198 16.4918 16.9612 15.3645 17.1155 13.6446C17.1348 13.4578 16.9804 13.3032 16.7939 13.3032H15.8742C14.6522 13.3032 13.6231 12.3821 13.5202 11.2097C13.4623 10.5398 13.7067 9.86991 14.1955 9.39324C14.6071 8.9681 15.1796 8.72976 15.797 8.72976H16.7939C16.9804 8.72976 17.1348 8.57517 17.1155 8.38837C16.9804 6.82953 15.9385 5.7538 14.4013 5.57344C14.247 5.54767 14.0862 5.54123 13.919 5.54123H8.1304C7.95031 5.54123 7.77666 5.55411 7.60943 5.57988C5.96934 5.78601 4.91454 7.00989 4.91454 8.76197V13.271C4.91454 15.0489 6.35525 16.4918 8.1304 16.4918H13.919ZM17.7781 11.6794V10.3525C17.7781 9.99822 17.4951 9.70837 17.1349 9.69548H15.7971C15.437 9.69548 15.1089 9.83718 14.871 10.082C14.6008 10.3461 14.4465 10.7261 14.4851 11.1319C14.543 11.8276 15.1797 12.3365 15.8743 12.3365H17.1349C17.4951 12.3236 17.7781 12.0337 17.7781 11.6794Z" fill="#ADC7D8"/>
</svg>
