<svg width="30" height="30" viewBox="0 0 30 30" fill="none" xmlns="http://www.w3.org/2000/svg">
<path fill-rule="evenodd" clip-rule="evenodd" d="M10.5607 0.890288C11.1093 0.668975 13.0519 0.243169 14.2367 0.0845268C15.9816 -0.149167 18.4494 0.114582 20.0903 0.710044C22.2222 1.4837 24.0235 3.3413 24.5294 5.28804C24.7621 6.18328 24.8613 7.52286 24.7617 8.4263C24.4455 11.296 23.3255 13.4706 20.9967 15.7365C19.2424 17.4434 17.4075 18.6575 14.6912 19.9087C12.2054 21.0538 10.8221 21.9239 10.2891 22.678C10.0644 22.9957 9.90189 23.432 10.0081 23.432C10.2602 23.432 10.7791 23.0939 11.3426 22.5626C13.0879 20.9168 16.0446 19.8546 19.5875 19.6002C21.7382 19.4459 23.2485 19.7008 24.5858 20.444C25.3268 20.8558 25.7463 21.2855 26.1127 22.008C26.6973 23.1605 26.689 24.0799 26.0833 25.2802C25.5156 26.4051 24.5073 27.2346 22.6843 28.0763C20.7894 28.9512 18.2261 29.5934 15.5155 29.8723C13.8871 30.0398 12.6947 30.0422 11.2394 29.8808C8.80673 29.611 6.93387 28.9231 5.33694 27.7127C4.38523 26.9913 3.92012 26.5029 3.53123 25.8164C3.12665 25.1021 2.98546 24.5502 2.98419 23.6784C2.98274 22.7089 3.10287 22.1511 3.47044 21.4212C4.37624 19.6223 5.77528 18.3753 8.54468 16.8987C9.82586 16.2156 11.1563 15.3819 11.6873 14.9293C12.3096 14.3989 12.8245 13.6538 13.056 12.9484C13.2791 12.2685 13.2991 10.9733 13.0977 10.2456C12.7949 9.15154 11.4687 6.46991 11.093 6.19173C10.9771 6.10601 10.6526 6.01601 10.3527 5.98656C10.0589 5.95761 9.75019 5.90928 9.66662 5.87914C9.54984 5.83697 9.47072 5.91757 9.32564 6.22631C9.16685 6.56409 9.14154 6.76124 9.16749 7.45899C9.19434 8.18039 9.22919 8.33357 9.43261 8.62456C10.0023 9.43954 10.0184 9.46703 9.87894 9.38993C9.36783 9.10731 8.89292 8.77338 8.69657 8.55856L8.46702 8.30736L7.80937 8.90683C7.10999 9.54439 6.61249 9.91393 6.61249 9.79584C6.61249 9.7564 6.75993 9.51365 6.94013 9.25639C7.46186 8.51168 7.93558 7.56205 8.14545 6.84005C8.25216 6.47264 8.42047 6.02276 8.51937 5.84038L8.69921 5.50867L8.38036 5.27028C8.02332 5.00328 7.70131 4.318 7.70131 3.825C7.70131 3.55886 7.80565 3.41703 8.5406 2.68462C9.00226 2.22457 9.55257 1.67018 9.76352 1.45262C9.97448 1.23507 10.3332 0.982075 10.5607 0.890288ZM17.3645 1.08949L17.0016 0.990614C16.6655 0.899083 14.9976 0.873041 14.3703 0.94963C13.323 1.07736 11.1193 1.58112 10.6863 1.79185C10.5548 1.8558 10.3212 2.09231 10.1671 2.31738C10.0131 2.54237 9.61989 2.97518 9.29324 3.27905C8.61891 3.90645 8.53842 4.13656 8.99427 4.13323C9.40802 4.13024 10.059 3.65594 10.5132 3.02666C11.0971 2.2174 11.3448 2.10444 13.1681 1.81516C15.5433 1.43828 16.2254 1.32361 16.8201 1.20134L17.3645 1.08949ZM20.7671 3.18573C20.4787 2.92856 19.9891 2.61597 19.6072 2.44529C18.9334 2.14414 18.3203 2.03425 18.0057 2.15831C17.7854 2.24515 17.843 2.27503 18.6802 2.50779C19.0545 2.61187 19.7894 2.90713 20.3134 3.16396L21.2661 3.63075L20.7671 3.18573ZM11.263 3.70845C11.263 3.82457 12.2406 3.884 12.4644 3.70845C12.6698 3.5475 13.0484 2.92701 12.8701 2.92428C12.6836 2.92146 11.263 3.58063 11.263 3.70845ZM17.6821 4.02078C17.6821 4.00012 17.518 3.92131 17.3174 3.84583C17.1167 3.77026 16.8807 3.70845 16.7927 3.70845C16.7049 3.70845 16.3892 3.94112 16.0914 4.22544C15.4169 4.86932 14.5681 5.27762 13.4812 5.48109C13.042 5.56323 12.6823 5.66816 12.6817 5.71418C12.678 5.99954 14.568 5.96863 15.5217 5.66765C16.1836 5.45872 16.5895 5.23903 17.0756 4.82628C17.367 4.57884 17.6821 4.16038 17.6821 4.02078ZM2.05797 9.17297C3.15332 7.48572 4.72839 5.78676 6.06309 4.85284C6.48455 4.55793 6.86219 4.33576 6.90239 4.35907C6.94258 4.38246 6.97588 4.48578 6.97652 4.58866C6.97715 4.69155 7.07923 4.94292 7.20335 5.14732C7.32748 5.35173 7.4291 5.53053 7.4291 5.54478C7.4291 5.55896 7.21125 5.68626 6.94503 5.82766C5.67094 6.50432 3.52688 9.0671 2.52017 11.1168C1.89347 12.3926 1.45586 14.0268 1.2997 15.6737C1.15271 17.225 1.66918 20.083 2.36992 21.5962C2.64475 22.1896 2.64602 22.1992 2.54268 22.9293C2.48551 23.3339 2.4387 23.7905 2.4387 23.9441V24.2235L2.27356 24.0198C1.86543 23.5165 0.971697 21.7511 0.700673 20.9132C0.0800484 18.9938 -0.0454383 18.0676 0.0129948 15.8373C0.0606304 14.0161 0.112259 13.7126 0.638157 12.1614C0.938942 11.2741 1.60766 9.86654 2.05797 9.17297ZM22.0828 6.80914L21.65 5.98869C21.3926 5.50081 21.0355 4.98493 20.7688 4.71588C20.5221 4.46699 20.3188 4.28828 20.3169 4.3186C20.315 4.34899 20.4546 4.65637 20.6273 5.00166C20.9813 5.71009 21.3115 7.09705 21.3115 7.87583C21.3115 8.47676 21.0093 10.2262 20.7997 10.8379C20.5377 11.6026 19.7517 12.9943 19.1692 13.7247C17.9006 15.3153 15.7842 16.9418 13.7352 17.901C13.1862 18.158 12.4513 18.5411 12.1019 18.7525C11.7526 18.9639 11.1891 19.2815 10.8496 19.4585C9.70845 20.0533 10.3057 19.8679 11.7549 19.1775C12.5446 18.8013 13.6195 18.2986 14.1435 18.0605C15.2698 17.5487 17.0741 16.462 18.0279 15.7209C19.1969 14.8127 20.6043 13.1308 21.1711 11.9647C21.8819 10.5025 22.0728 9.67981 22.0784 8.05505L22.0828 6.80914ZM25.6327 8.44722L25.6075 7.4905C25.5772 6.33432 25.5905 6.33176 26.4871 7.32255C27.6375 8.5939 28.7955 10.6603 29.3661 12.4602C29.8054 13.8457 30.0834 15.9019 29.9777 16.9843C29.8701 18.0857 29.5752 19.6462 29.3444 20.3332C28.8846 21.703 28.0474 23.3237 27.4806 23.941L27.2093 24.2366V23.6094C27.2093 23.2645 27.1641 22.8401 27.1087 22.6665C27.0167 22.3776 27.0442 22.2664 27.4337 21.3502C27.6677 20.7998 27.9834 19.8999 28.1352 19.3506C28.3774 18.4739 28.4168 18.1651 28.4569 16.8266C28.5156 14.8668 28.405 14.0926 27.8368 12.4811C27.3257 11.0317 27.0017 10.3926 26.2035 9.25836L25.6327 8.44722ZM19.3379 10.1094C19.4287 9.99043 19.5612 9.68485 19.6325 9.43023C19.704 9.17571 19.7524 8.95806 19.7403 8.94662C19.7281 8.93518 19.5876 9.02193 19.4281 9.13942C18.9374 9.50076 17.7779 9.95423 17.0082 10.0856C16.4939 10.1735 15.9766 10.1954 15.2708 10.1589L14.266 10.107L14.3218 10.5155C14.3523 10.7403 14.4058 10.9672 14.4403 11.0199C14.6263 11.3029 16.1844 11.396 17.096 11.1785C17.8166 11.0067 19.1321 10.3794 19.3379 10.1094ZM25.7802 11.0338C25.0872 11.0602 25.0612 11.0431 25.2155 10.6613C25.3057 10.4378 25.3243 10.4325 25.8233 10.4877C26.1064 10.519 26.3463 10.5529 26.3564 10.5632C26.3666 10.5734 26.3891 10.6779 26.4064 10.7953C26.4374 11.0042 26.424 11.0092 25.7802 11.0338ZM3.43678 10.9108C3.43678 10.8191 3.48786 10.6942 3.55019 10.6332C3.63367 10.5517 3.8909 10.5331 4.52559 10.563C5.49028 10.6085 6.30844 10.774 6.17742 10.8973C6.13132 10.9407 5.49582 10.999 4.76513 11.0268C3.48959 11.0755 3.43678 11.0709 3.43678 10.9108ZM17.7228 12.9374C18.3448 12.6713 18.3746 12.6435 18.7601 11.9693C18.9146 11.6993 19.0313 11.4795 19.0194 11.4811C19.0075 11.4825 18.926 11.535 18.8384 11.5976C18.7506 11.6603 18.2811 11.8179 17.7949 11.9478C16.9988 12.1607 16.8206 12.179 16.0035 12.1312C15.5045 12.1022 14.9549 12.0398 14.7822 11.9926C14.6097 11.9455 14.4413 11.9353 14.4081 11.9701C14.375 12.0049 14.3253 12.2539 14.2977 12.5237L14.2474 13.0141L14.7172 13.136C15.8469 13.4292 16.7057 13.3725 17.7228 12.9374ZM2.71008 12.2496C2.75255 12.1102 2.80699 11.9661 2.83112 11.9294C2.89491 11.8321 11.4001 11.8974 11.807 11.9982C12.0437 12.0569 12.1473 12.1302 12.1473 12.2389C12.1473 12.3532 12.0558 12.4094 11.807 12.4481C11.62 12.4772 9.47916 12.5015 7.04983 12.502L2.63287 12.5029L2.71008 12.2496ZM24.7141 11.9151L25.7575 11.8858C26.3314 11.8697 26.8329 11.8483 26.8718 11.8382C26.9469 11.8187 26.9792 11.8899 27.0674 12.2681L27.122 12.5029H25.7708H24.4194L24.5667 12.2089L24.7141 11.9151ZM2.11604 13.9339C2.13546 13.8748 2.17556 13.722 2.20523 13.5946L2.25904 13.3628L6.95365 13.4142C9.53569 13.4426 11.666 13.4802 11.6876 13.498C11.7091 13.5157 11.6435 13.6354 11.5417 13.7637L11.3566 13.9971L6.71865 14.0192C3.02384 14.0368 2.08801 14.0195 2.11604 13.9339ZM23.6568 13.7639C23.7601 13.6104 23.9381 13.4594 24.0524 13.4284C24.1668 13.3973 24.9953 13.3781 25.8936 13.3857L27.5268 13.3994V13.6983V13.9971L25.4979 14.0201L23.4691 14.0431L23.6568 13.7639ZM16.6387 14.0769C16.2124 14.1136 15.7498 14.0869 15.2323 13.996C14.8081 13.9215 14.3343 13.8391 14.1793 13.8129C13.9191 13.769 13.8794 13.796 13.6576 14.1695C13.5256 14.3918 13.4176 14.601 13.4176 14.6345C13.4176 14.8444 14.7265 15.1004 15.4031 15.0228C16.0764 14.9457 16.5681 14.7297 16.9562 14.3406L17.2738 14.0221L16.6387 14.0769ZM22.5099 15.4509C22.4238 15.4198 22.4671 15.3177 22.6644 15.0866L22.9385 14.7656L25.3967 14.7897L27.855 14.8136L27.827 15.1312L27.799 15.4486L25.2143 15.4714C23.7926 15.4838 22.5756 15.4746 22.5099 15.4509ZM1.9715 15.1925C1.98892 15.0516 2.02195 14.9075 2.04491 14.8723C2.09545 14.7945 8.8138 14.8024 9.516 14.8811L10.015 14.937L9.72614 15.2151L9.43724 15.4932L5.68845 15.4709L1.93965 15.4486L1.9715 15.1925ZM14.9147 15.8537C14.765 15.8417 14.3975 15.7909 14.0981 15.7409C13.7987 15.6909 13.4104 15.5622 13.2353 15.455L12.9169 15.26L12.1919 15.8111C11.7931 16.1141 11.2926 16.4806 11.0795 16.6254C10.8666 16.7701 10.7258 16.9201 10.7665 16.9584C10.88 17.0652 11.7615 17.0585 12.4109 16.9459C13.1416 16.8192 13.841 16.5748 14.5971 16.182C15.1512 15.8941 15.1704 15.8742 14.9147 15.8537ZM21.0696 16.8282C21.028 16.7886 21.1573 16.6256 21.3569 16.4661C21.5565 16.3066 21.7742 16.1949 21.8407 16.2179C21.9071 16.2409 23.3056 16.2598 24.9483 16.2598H27.9351V16.5497V16.8397L26.6422 16.8889C24.8655 16.9565 21.1621 16.9161 21.0696 16.8282ZM1.8393 16.545C1.80128 16.4119 1.83313 16.3494 1.9539 16.3201C2.0459 16.2979 3.29505 16.2752 4.72975 16.2697C7.54878 16.259 7.58752 16.2659 7.10418 16.6932L6.87008 16.9002L4.38214 16.9022C2.74393 16.9036 1.89383 16.8745 1.89302 16.8168C1.89238 16.7688 1.86816 16.6465 1.8393 16.545ZM2.0009 18.1951C1.98475 18.062 1.99364 17.8986 2.02077 17.8322C2.06079 17.7341 2.3789 17.7113 3.70617 17.7113C4.60598 17.7113 5.34221 17.7422 5.34221 17.7799C5.34221 17.8177 5.19712 17.9809 5.01982 18.1428L4.69744 18.4371H3.36392H2.03039L2.0009 18.1951ZM18.7964 18.4469C18.7825 18.4337 19.0008 18.2628 19.2814 18.0671L19.7918 17.7113H23.803C26.0091 17.7113 27.8333 17.7293 27.8567 17.7513C27.8801 17.7735 27.8832 17.921 27.8636 18.0793L27.8279 18.3672L23.3249 18.419C20.8482 18.4475 18.8104 18.46 18.7964 18.4469ZM2.77296 19.9313C2.34324 19.9313 2.25723 19.8518 2.25723 19.4547C2.25723 19.2535 2.27583 19.2482 2.9831 19.2482C3.44113 19.2482 3.70898 19.2821 3.70898 19.3402C3.70898 19.3907 3.58966 19.5444 3.44376 19.6817C3.22972 19.8831 3.10024 19.9313 2.77296 19.9313ZM24.5474 19.3763L24.8122 19.3223C24.9579 19.2927 25.6327 19.2638 26.312 19.2583L27.5471 19.2482L27.5021 19.483C27.4211 19.9057 27.3497 19.9313 26.2486 19.9313H25.2195L24.8834 19.6538L24.5474 19.3763ZM23.1835 21.5962C22.9732 21.2321 22.8983 21.1982 22.743 21.1278C22.68 21.0993 22.6039 21.0648 22.5001 20.9999C22.1404 20.7749 21.2507 20.6271 20.3134 20.6486C19.9816 20.6563 19.6748 20.6555 19.4015 20.6547C18.9029 20.6534 18.5153 20.6524 18.289 20.7036C17.3664 20.8402 15.6163 21.2803 15.2367 21.4734C14.0273 21.9083 12.0713 23.0473 12.2479 23.2136C12.2711 23.2354 12.7173 23.098 13.2395 22.9081C15.2684 22.1709 16.3314 21.8211 16.9407 21.6908C17.785 21.5101 19.6995 21.357 20.2782 21.4238C20.8827 21.4938 21.7994 21.9053 22.0034 22.1984C22.3672 22.7207 22.0876 23.3732 21.2507 23.955C20.4883 24.4851 18.8268 25.27 17.7729 25.5981C15.6907 26.2464 14.2157 26.421 10.9184 26.4097C8.77996 26.4024 8.40731 26.381 7.95373 26.2401C7.26333 26.0256 7.17441 26.0364 7.436 26.3032C7.9403 26.8176 9.31883 27.2039 11.0585 27.3184C12.004 27.3806 14.0583 27.257 15.3637 27.0593C18.8067 26.538 22.4646 24.7192 23.2201 23.1529C23.4444 22.6879 23.4789 22.1079 23.1835 21.5962ZM16.9407 24.4443C18.4282 24.3186 20.8316 22.9246 20.6696 22.678C20.5129 22.4395 15.2018 23.2934 13.5295 23.8888C12.4384 24.2774 16.242 24.5034 16.9407 24.4443ZM16.0945 9.33845C17.9022 9.1477 19.6757 8.10679 19.6776 7.23554C19.6541 7.024 19.6206 6.89263 19.4119 6.94435C19.4119 6.92863 19.3118 6.99328 19.1538 7.0954C19.012 7.18696 18.8237 7.30864 18.619 7.42953C18.1861 7.68534 17.5634 7.97266 17.2353 8.06811C16.4234 8.3042 15.011 8.42314 14.2494 8.31948C13.9166 8.27423 13.6161 8.2364 13.5815 8.23547C13.4961 8.23316 13.8601 9.01373 14.0173 9.16964C14.1847 9.33597 15.2767 9.42477 16.0945 9.33845ZM18.5295 5.55546C18.7543 5.71009 18.7556 6.01516 18.3247 6.38154C17.7876 6.83808 17.2588 7.09389 16.3392 7.34176C15.6031 7.54028 15.3714 7.56495 14.5245 7.53541C13.425 7.49699 13.118 7.39436 12.8085 6.96172C12.5484 6.59816 12.5464 6.49826 12.8003 6.57416C13.2004 6.69362 15.0799 6.64332 15.686 6.49689C16.406 6.32297 17.5108 5.90467 17.9413 5.55546C18.0623 5.44482 18.2903 5.35003 18.5295 5.55546ZM7.10418 22.463C7.82855 21.3526 8.37543 21.0086 9.43724 20.5555C8.85565 21.6192 8.60832 22.2289 8.854 23.432C9.06322 24.7152 10.056 25.0173 12.2479 25.3564L8.82365 25.2777C6.31222 25.1016 5.82542 24.5398 7.10418 22.463ZM11.3495 18.0844C10.7891 18.0767 10.5379 18.0281 10.1385 17.8502C9.86133 17.7268 9.61753 17.6259 9.59666 17.6259C9.52253 17.6259 8.85128 17.9836 8.07749 18.4353C5.92899 19.6895 4.58511 21.1709 4.24595 22.6589C4.1652 23.5167 4.29796 23.97 4.80859 24.7341C5.23474 25.1859 5.30913 25.1951 5.29424 24.9999C5.18516 24.5926 5.14792 24.355 5.29424 23.8888L5.58836 23.0555C5.68169 22.7351 5.82346 22.463 5.82346 22.463C6.46441 21.246 7.32703 20.4501 9.01696 19.5168C9.71561 19.131 10.6853 18.6725 11.1718 18.4981C11.6582 18.3237 12.0564 18.1614 12.0565 18.1376C12.0565 18.1138 11.7384 18.0898 11.3495 18.0844Z" fill="url(#paint0_linear_653_52)"/>
<defs>
<linearGradient id="paint0_linear_653_52" x1="14.9553" y1="-0.215122" x2="14.9553" y2="29.7849" gradientUnits="userSpaceOnUse">
<stop stop-color="#7AFFC5"/>
<stop offset="1" stop-color="#497C9E"/>
</linearGradient>
</defs>
</svg>
