<svg width="30" height="30" viewBox="0 0 30 30" fill="none" xmlns="http://www.w3.org/2000/svg">
<g clip-path="url(#clip0_653_76)">
<path d="M15 30C23.2843 30 30 23.2843 30 15C30 6.71573 23.2843 0 15 0C6.71573 0 0 6.71573 0 15C0 23.2843 6.71573 30 15 30Z" fill="#627EEA"/>
<path d="M15.4668 3.75V12.0656L22.4952 15.2062L15.4668 3.75Z" fill="white" fill-opacity="0.602"/>
<path d="M15.4669 3.75L8.4375 15.2062L15.4669 12.0656V3.75Z" fill="white"/>
<path d="M15.4668 20.5949V26.2452L22.4999 16.5149L15.4668 20.5949Z" fill="white" fill-opacity="0.602"/>
<path d="M15.4669 26.2452V20.594L8.4375 16.5149L15.4669 26.2452Z" fill="white"/>
<path d="M15.4668 19.2871L22.4952 15.2061L15.4668 12.0674V19.2871Z" fill="white" fill-opacity="0.2"/>
<path d="M8.4375 15.2061L15.4669 19.2871V12.0674L8.4375 15.2061Z" fill="white" fill-opacity="0.602"/>
</g>
<defs>
<clipPath id="clip0_653_76">
<rect width="30" height="30" fill="white"/>
</clipPath>
</defs>
</svg>
