<svg width="35" height="29" viewBox="0 0 35 29" fill="none" xmlns="http://www.w3.org/2000/svg">
<path fill-rule="evenodd" clip-rule="evenodd" d="M5.44227 5.70875C2.73103 8.84855 0.397333 11.5534 0.256364 11.7195L0 12.0215H17.3768H34.7537V10.7728V9.52394L20.1046 9.50427L5.45567 9.48452L8.7542 5.65949C10.5684 3.55572 12.0987 1.77981 12.1549 1.71299C12.2435 1.60753 12.139 1.48669 11.3614 0.795763C10.8687 0.35807 10.4446 0 10.4187 0C10.3929 0 8.15342 2.56894 5.44227 5.70875ZM0.243114 18.2663V19.5151L14.8921 19.5348L29.5411 19.5545L26.2426 23.3795C24.4284 25.4833 22.8977 27.2596 22.8411 27.3269C22.7514 27.4336 22.8516 27.5487 23.6227 28.2246C24.1092 28.6511 24.5411 29 24.5826 29C24.6399 29 30.7627 21.9612 34.6153 17.4664L35 17.0175H17.6216H0.243114V18.2663Z" fill="#5B7281"/>
</svg>
