<svg width="25" height="25" viewBox="0 0 25 25" fill="none" xmlns="http://www.w3.org/2000/svg">
<circle cx="12.5" cy="12.5" r="12" fill="#334650" stroke="#CE9F71" stroke-dasharray="5 5"/>
<path d="M9.3157 18V17.1051L12.6765 13.4261C13.0709 12.9953 13.3957 12.6207 13.6509 12.3026C13.9061 11.9811 14.0951 11.6795 14.2177 11.3977C14.3436 11.1127 14.4066 10.8144 14.4066 10.5028C14.4066 10.1449 14.3204 9.83499 14.1481 9.57315C13.979 9.31132 13.747 9.10914 13.4521 8.96662C13.1571 8.8241 12.8256 8.75284 12.4577 8.75284C12.0666 8.75284 11.7253 8.83404 11.4336 8.99645C11.1452 9.15554 10.9215 9.37926 10.7624 9.66761C10.6067 9.95597 10.5288 10.294 10.5288 10.6818H9.35547C9.35547 10.0852 9.49302 9.56155 9.76811 9.1108C10.0432 8.66004 10.4177 8.30871 10.8917 8.05682C11.369 7.80492 11.9042 7.67898 12.4975 7.67898C13.0941 7.67898 13.6228 7.80492 14.0835 8.05682C14.5442 8.30871 14.9054 8.64844 15.1673 9.07599C15.4291 9.50355 15.56 9.97917 15.56 10.5028C15.56 10.8774 15.4921 11.2436 15.3562 11.6016C15.2236 11.9562 14.9916 12.3523 14.6602 12.7898C14.332 13.224 13.8763 13.7543 13.293 14.3807L11.006 16.8267V16.9062H15.739V18H9.3157Z" fill="white"/>
</svg>
