<svg width="25" height="25" viewBox="0 0 25 25" fill="none" xmlns="http://www.w3.org/2000/svg">
<circle cx="12.5" cy="12.5" r="12" fill="#334650" stroke="#FFE766" stroke-dasharray="5 5"/>
<path d="M12.477 18.1392C11.8937 18.1392 11.3683 18.0232 10.901 17.7912C10.4337 17.5592 10.0592 17.241 9.77743 16.8366C9.49571 16.4323 9.34159 15.9716 9.31507 15.4545H10.5083C10.5547 15.9152 10.7635 16.2964 11.1347 16.598C11.5092 16.8963 11.9566 17.0455 12.477 17.0455C12.8946 17.0455 13.2658 16.9477 13.5906 16.7521C13.9188 16.5566 14.1756 16.2881 14.3612 15.9467C14.5502 15.602 14.6446 15.2126 14.6446 14.7784C14.6446 14.3343 14.5468 13.9382 14.3513 13.5902C14.1591 13.2389 13.8939 12.9621 13.5558 12.7599C13.2178 12.5578 12.8316 12.455 12.3975 12.4517C12.0859 12.4484 11.7661 12.4964 11.4379 12.5959C11.1098 12.692 10.8397 12.8163 10.6276 12.9688L9.47417 12.8295L10.0906 7.81818H15.3804V8.91193H11.1247L10.7668 11.9148H10.8264C11.0352 11.7491 11.2971 11.6115 11.6119 11.5021C11.9268 11.3928 12.2549 11.3381 12.5963 11.3381C13.2194 11.3381 13.7746 11.4872 14.2618 11.7855C14.7523 12.0805 15.1368 12.4848 15.4152 12.9986C15.6969 13.5123 15.8378 14.099 15.8378 14.7585C15.8378 15.4081 15.692 15.9882 15.4003 16.4986C15.1119 17.0057 14.7142 17.4067 14.2071 17.7017C13.7 17.9934 13.1233 18.1392 12.477 18.1392Z" fill="white"/>
</svg>
