<svg width="25" height="25" viewBox="0 0 25 25" fill="none" xmlns="http://www.w3.org/2000/svg">
<circle cx="12.5" cy="12.5" r="12" fill="#334650" stroke="#FF6A5E" stroke-dasharray="5 5"/>
<path d="M10.3208 7.81818V18H9.08787V9.1108H9.02821L6.54242 10.7614V9.50852L9.08787 7.81818H10.3208ZM15.0309 18.1392C14.4476 18.1392 13.9222 18.0232 13.4549 17.7912C12.9876 17.5592 12.6131 17.241 12.3313 16.8366C12.0496 16.4323 11.8955 15.9716 11.869 15.4545H13.0622C13.1086 15.9152 13.3174 16.2964 13.6886 16.598C14.0631 16.8963 14.5106 17.0455 15.0309 17.0455C15.4485 17.0455 15.8197 16.9477 16.1445 16.7521C16.4727 16.5566 16.7295 16.2881 16.9151 15.9467C17.1041 15.602 17.1985 15.2126 17.1985 14.7784C17.1985 14.3343 17.1008 13.9382 16.9052 13.5902C16.713 13.2389 16.4478 12.9621 16.1097 12.7599C15.7717 12.5578 15.3856 12.455 14.9514 12.4517C14.6398 12.4484 14.32 12.4964 13.9918 12.5959C13.6637 12.692 13.3936 12.8163 13.1815 12.9688L12.0281 12.8295L12.6445 7.81818H17.9343V8.91193H13.6786L13.3207 11.9148H13.3803C13.5892 11.7491 13.851 11.6115 14.1659 11.5021C14.4807 11.3928 14.8088 11.3381 15.1502 11.3381C15.7733 11.3381 16.3285 11.4872 16.8157 11.7855C17.3062 12.0805 17.6907 12.4848 17.9691 12.9986C18.2508 13.5123 18.3917 14.099 18.3917 14.7585C18.3917 15.4081 18.2459 15.9882 17.9542 16.4986C17.6659 17.0057 17.2681 17.4067 16.761 17.7017C16.2539 17.9934 15.6772 18.1392 15.0309 18.1392Z" fill="white"/>
</svg>
