<svg width="25" height="25" viewBox="0 0 25 25" fill="none" xmlns="http://www.w3.org/2000/svg">
<circle cx="12.5" cy="12.5" r="12" fill="#334650" stroke="#7AFFC5" stroke-dasharray="5 5"/>
<path d="M6.52962 7.81818V18H5.29666V9.1108H5.237L2.75121 10.7614V9.50852L5.29666 7.81818H6.52962ZM11.3789 18.1392C10.6299 18.1392 9.99183 17.9354 9.46484 17.5277C8.93785 17.1167 8.53516 16.5218 8.25675 15.7429C7.97834 14.9607 7.83913 14.0161 7.83913 12.9091C7.83913 11.8087 7.97834 10.8691 8.25675 10.0902C8.53847 9.308 8.94283 8.71141 9.46982 8.30043C10.0001 7.88613 10.6365 7.67898 11.3789 7.67898C12.1213 7.67898 12.756 7.88613 13.283 8.30043C13.8133 8.71141 14.2177 9.308 14.4961 10.0902C14.7778 10.8691 14.9187 11.8087 14.9187 12.9091C14.9187 14.0161 14.7795 14.9607 14.5011 15.7429C14.2227 16.5218 13.82 17.1167 13.293 17.5277C12.766 17.9354 12.128 18.1392 11.3789 18.1392ZM11.3789 17.0455C12.1213 17.0455 12.698 16.6875 13.109 15.9716C13.52 15.2557 13.7255 14.2348 13.7255 12.9091C13.7255 12.0275 13.631 11.2768 13.4421 10.657C13.2565 10.0372 12.988 9.56487 12.6367 9.24006C12.2887 8.91525 11.8694 8.75284 11.3789 8.75284C10.6431 8.75284 10.0681 9.11577 9.65376 9.84162C9.23946 10.5642 9.03232 11.5866 9.03232 12.9091C9.03232 13.7907 9.12512 14.5398 9.31072 15.1562C9.49633 15.7727 9.76314 16.2417 10.1112 16.5632C10.4625 16.8847 10.8851 17.0455 11.3789 17.0455ZM18.7289 18.1392C17.9799 18.1392 17.3418 17.9354 16.8148 17.5277C16.2879 17.1167 15.8852 16.5218 15.6067 15.7429C15.3283 14.9607 15.1891 14.0161 15.1891 12.9091C15.1891 11.8087 15.3283 10.8691 15.6067 10.0902C15.8885 9.308 16.2928 8.71141 16.8198 8.30043C17.3501 7.88613 17.9865 7.67898 18.7289 7.67898C19.4713 7.67898 20.106 7.88613 20.633 8.30043C21.1633 8.71141 21.5677 9.308 21.8461 10.0902C22.1278 10.8691 22.2687 11.8087 22.2687 12.9091C22.2687 14.0161 22.1295 14.9607 21.8511 15.7429C21.5727 16.5218 21.17 17.1167 20.643 17.5277C20.116 17.9354 19.478 18.1392 18.7289 18.1392ZM18.7289 17.0455C19.4713 17.0455 20.048 16.6875 20.459 15.9716C20.87 15.2557 21.0755 14.2348 21.0755 12.9091C21.0755 12.0275 20.981 11.2768 20.7921 10.657C20.6065 10.0372 20.338 9.56487 19.9867 9.24006C19.6387 8.91525 19.2194 8.75284 18.7289 8.75284C17.9931 8.75284 17.4181 9.11577 17.0038 9.84162C16.5895 10.5642 16.3823 11.5866 16.3823 12.9091C16.3823 13.7907 16.4751 14.5398 16.6607 15.1562C16.8463 15.7727 17.1131 16.2417 17.4612 16.5632C17.8125 16.8847 18.2351 17.0455 18.7289 17.0455Z" fill="white"/>
</svg>
