<svg width="25" height="25" viewBox="0 0 25 25" fill="none" xmlns="http://www.w3.org/2000/svg">
<circle cx="12.5" cy="12.5" r="12" fill="#334650" stroke="#2275FF" stroke-dasharray="5 5"/>
<path d="M10.2046 7.81818V18H8.97166V9.1108H8.912L6.42621 10.7614V9.50852L8.97166 7.81818H10.2046ZM15.0539 18.1392C14.3049 18.1392 13.6668 17.9354 13.1398 17.5277C12.6129 17.1167 12.2102 16.5218 11.9317 15.7429C11.6533 14.9607 11.5141 14.0161 11.5141 12.9091C11.5141 11.8087 11.6533 10.8691 11.9317 10.0902C12.2135 9.308 12.6178 8.71141 13.1448 8.30043C13.6751 7.88613 14.3115 7.67898 15.0539 7.67898C15.7963 7.67898 16.431 7.88613 16.958 8.30043C17.4883 8.71141 17.8927 9.308 18.1711 10.0902C18.4528 10.8691 18.5937 11.8087 18.5937 12.9091C18.5937 14.0161 18.4545 14.9607 18.1761 15.7429C17.8977 16.5218 17.495 17.1167 16.968 17.5277C16.441 17.9354 15.803 18.1392 15.0539 18.1392ZM15.0539 17.0455C15.7963 17.0455 16.373 16.6875 16.784 15.9716C17.195 15.2557 17.4005 14.2348 17.4005 12.9091C17.4005 12.0275 17.306 11.2768 17.1171 10.657C16.9315 10.0372 16.663 9.56487 16.3117 9.24006C15.9637 8.91525 15.5444 8.75284 15.0539 8.75284C14.3181 8.75284 13.7431 9.11577 13.3288 9.84162C12.9145 10.5642 12.7073 11.5866 12.7073 12.9091C12.7073 13.7907 12.8001 14.5398 12.9857 15.1562C13.1713 15.7727 13.4381 16.2417 13.7861 16.5632C14.1375 16.8847 14.5601 17.0455 15.0539 17.0455Z" fill="white"/>
</svg>
