<svg width="25" height="25" viewBox="0 0 25 25" fill="none" xmlns="http://www.w3.org/2000/svg">
<circle cx="12.5" cy="12.5" r="12" fill="#334650" stroke="#D112AE" stroke-dasharray="5 5"/>
<path d="M8.80201 18.1392C8.21867 18.1392 7.69334 18.0232 7.22601 17.7912C6.75868 17.5592 6.38416 17.241 6.10243 16.8366C5.82071 16.4323 5.66659 15.9716 5.64007 15.4545H6.83326C6.87966 15.9152 7.08846 16.2964 7.45968 16.598C7.8342 16.8963 8.28165 17.0455 8.80201 17.0455C9.21962 17.0455 9.59083 16.9477 9.91564 16.7521C10.2438 16.5566 10.5006 16.2881 10.6862 15.9467C10.8752 15.602 10.9696 15.2126 10.9696 14.7784C10.9696 14.3343 10.8718 13.9382 10.6763 13.5902C10.4841 13.2389 10.2189 12.9621 9.88084 12.7599C9.54277 12.5578 9.15665 12.455 8.72246 12.4517C8.41091 12.4484 8.09107 12.4964 7.76294 12.5959C7.43482 12.692 7.1647 12.8163 6.95257 12.9688L5.79917 12.8295L6.41564 7.81818H11.7054V8.91193H7.44973L7.09178 11.9148H7.15144C7.36024 11.7491 7.62208 11.6115 7.93695 11.5021C8.25182 11.3928 8.57994 11.3381 8.92132 11.3381C9.54443 11.3381 10.0996 11.4872 10.5868 11.7855C11.0773 12.0805 11.4618 12.4848 11.7402 12.9986C12.0219 13.5123 12.1628 14.099 12.1628 14.7585C12.1628 15.4081 12.017 15.9882 11.7253 16.4986C11.4369 17.0057 11.0392 17.4067 10.5321 17.7017C10.025 17.9934 9.44831 18.1392 8.80201 18.1392ZM16.0588 18.1392C15.3097 18.1392 14.6717 17.9354 14.1447 17.5277C13.6177 17.1167 13.215 16.5218 12.9366 15.7429C12.6582 14.9607 12.519 14.0161 12.519 12.9091C12.519 11.8087 12.6582 10.8691 12.9366 10.0902C13.2184 9.308 13.6227 8.71141 14.1497 8.30043C14.68 7.88613 15.3164 7.67898 16.0588 7.67898C16.8012 7.67898 17.4359 7.88613 17.9629 8.30043C18.4932 8.71141 18.8976 9.308 19.176 10.0902C19.4577 10.8691 19.5986 11.8087 19.5986 12.9091C19.5986 14.0161 19.4594 14.9607 19.1809 15.7429C18.9025 16.5218 18.4998 17.1167 17.9729 17.5277C17.4459 17.9354 16.8078 18.1392 16.0588 18.1392ZM16.0588 17.0455C16.8012 17.0455 17.3779 16.6875 17.7889 15.9716C18.1999 15.2557 18.4054 14.2348 18.4054 12.9091C18.4054 12.0275 18.3109 11.2768 18.122 10.657C17.9364 10.0372 17.6679 9.56487 17.3166 9.24006C16.9686 8.91525 16.5493 8.75284 16.0588 8.75284C15.323 8.75284 14.7479 9.11577 14.3336 9.84162C13.9193 10.5642 13.7122 11.5866 13.7122 12.9091C13.7122 13.7907 13.805 14.5398 13.9906 15.1562C14.1762 15.7727 14.443 16.2417 14.791 16.5632C15.1424 16.8847 15.5649 17.0455 16.0588 17.0455Z" fill="white"/>
</svg>
