<svg width="25" height="25" viewBox="0 0 25 25" fill="none" xmlns="http://www.w3.org/2000/svg">
<circle cx="12.5" cy="12.5" r="12" fill="#334650" stroke="#34A853" stroke-dasharray="5 5"/>
<path d="M5.75691 18V17.1051L9.1177 13.4261C9.51212 12.9953 9.83693 12.6207 10.0921 12.3026C10.3473 11.9811 10.5363 11.6795 10.6589 11.3977C10.7848 11.1127 10.8478 10.8144 10.8478 10.5028C10.8478 10.1449 10.7616 9.83499 10.5893 9.57315C10.4203 9.31132 10.1883 9.10914 9.89327 8.96662C9.59829 8.8241 9.26685 8.75284 8.89895 8.75284C8.50785 8.75284 8.16647 8.83404 7.8748 8.99645C7.58645 9.15554 7.36273 9.37926 7.20364 9.66761C7.04786 9.95597 6.96998 10.294 6.96998 10.6818H5.79668C5.79668 10.0852 5.93423 9.56155 6.20932 9.1108C6.48442 8.66004 6.85894 8.30871 7.3329 8.05682C7.81017 7.80492 8.34545 7.67898 8.93872 7.67898C9.53532 7.67898 10.064 7.80492 10.5247 8.05682C10.9854 8.30871 11.3466 8.64844 11.6085 9.07599C11.8703 9.50355 12.0012 9.97917 12.0012 10.5028C12.0012 10.8774 11.9333 11.2436 11.7974 11.6016C11.6648 11.9562 11.4328 12.3523 11.1014 12.7898C10.7732 13.224 10.3175 13.7543 9.73418 14.3807L7.44725 16.8267V16.9062H12.1802V18H5.75691ZM16.0153 18.1392C15.432 18.1392 14.9066 18.0232 14.4393 17.7912C13.972 17.5592 13.5974 17.241 13.3157 16.8366C13.034 16.4323 12.8799 15.9716 12.8534 15.4545H14.0465C14.0929 15.9152 14.3017 16.2964 14.673 16.598C15.0475 16.8963 15.4949 17.0455 16.0153 17.0455C16.4329 17.0455 16.8041 16.9477 17.1289 16.7521C17.457 16.5566 17.7139 16.2881 17.8995 15.9467C18.0884 15.602 18.1829 15.2126 18.1829 14.7784C18.1829 14.3343 18.0851 13.9382 17.8896 13.5902C17.6973 13.2389 17.4322 12.9621 17.0941 12.7599C16.7561 12.5578 16.3699 12.455 15.9357 12.4517C15.6242 12.4484 15.3043 12.4964 14.9762 12.5959C14.6481 12.692 14.378 12.8163 14.1659 12.9688L13.0124 12.8295L13.6289 7.81818H18.9187V8.91193H14.663L14.3051 11.9148H14.3647C14.5735 11.7491 14.8354 11.6115 15.1502 11.5021C15.4651 11.3928 15.7932 11.3381 16.1346 11.3381C16.7577 11.3381 17.3129 11.4872 17.8001 11.7855C18.2906 12.0805 18.6751 12.4848 18.9535 12.9986C19.2352 13.5123 19.3761 14.099 19.3761 14.7585C19.3761 15.4081 19.2302 15.9882 18.9386 16.4986C18.6502 17.0057 18.2525 17.4067 17.7454 17.7017C17.2383 17.9934 16.6616 18.1392 16.0153 18.1392Z" fill="white"/>
</svg>
