<svg width="91" height="91" viewBox="0 0 91 91" fill="none" xmlns="http://www.w3.org/2000/svg">
<path d="M26.4082 26.4082L38.0461 38.7514C38.0657 38.7721 38.087 38.7911 38.1098 38.8082C38.5714 39.1544 39.1545 38.5713 38.8083 38.1097C38.7912 38.0869 38.7722 38.0656 38.7514 38.046L26.4082 26.4082Z" stroke="#FFD858" stroke-width="3" stroke-linecap="round"/>
<path d="M23.5803 23.5797C24.3614 22.7986 25.6277 22.7986 26.4087 23.5797C27.1898 24.3607 27.1898 25.6271 26.4087 26.4081C25.6277 27.1892 24.3614 27.1892 23.5803 26.4081C22.7993 25.6271 22.7993 24.3607 23.5803 23.5797Z" fill="#129379" stroke="#FFD858"/>
<path d="M64.5938 26.408L52.2506 38.0459C52.2298 38.0654 52.2108 38.0867 52.1937 38.1095C51.8475 38.5711 52.4307 39.1543 52.8923 38.8081C52.9151 38.791 52.9364 38.7719 52.9559 38.7512L64.5938 26.408Z" stroke="#FFD858" stroke-width="3" stroke-linecap="round"/>
<path d="M67.422 23.5796C68.2031 24.3606 68.2031 25.627 67.422 26.408C66.641 27.189 65.3746 27.189 64.5936 26.408C63.8126 25.627 63.8126 24.3606 64.5936 23.5796C65.3746 22.7985 66.641 22.7985 67.422 23.5796Z" fill="#129379" stroke="#FFD858"/>
<path d="M64.5937 64.5918L52.9558 52.2486C52.9363 52.2279 52.915 52.2089 52.8922 52.1918C52.4306 51.8456 51.8474 52.4287 52.1936 52.8903C52.2107 52.9131 52.2298 52.9344 52.2505 52.954L64.5937 64.5918Z" stroke="#FFD858" stroke-width="3" stroke-linecap="round"/>
<path d="M67.4216 67.4203C66.6406 68.2014 65.3743 68.2014 64.5932 67.4203C63.8122 66.6393 63.8122 65.3729 64.5932 64.5919C65.3743 63.8108 66.6406 63.8108 67.4216 64.5919C68.2027 65.3729 68.2027 66.6393 67.4216 67.4203Z" fill="#129379" stroke="#FFD858"/>
<path d="M26.4101 64.5918L38.7533 52.9539C38.7741 52.9343 38.7931 52.913 38.8102 52.8902C39.1564 52.4286 38.5732 51.8455 38.1117 52.1917C38.0888 52.2088 38.0675 52.2278 38.048 52.2486L26.4101 64.5918Z" stroke="#FFD858" stroke-width="3" stroke-linecap="round"/>
<path d="M23.5819 67.4202C22.8008 66.6391 22.8008 65.3728 23.5819 64.5918C24.3629 63.8107 25.6293 63.8107 26.4103 64.5918C27.1914 65.3728 27.1914 66.6391 26.4103 67.4202C25.6293 68.2012 24.3629 68.2012 23.5819 67.4202Z" fill="#129379" stroke="#FFD858"/>
<path d="M50.8044 50.8033C53.7334 47.8744 53.7334 43.1256 50.8044 40.1967C47.8755 37.2678 43.1268 37.2678 40.1978 40.1967C37.2689 43.1256 37.2689 47.8744 40.1978 50.8033C43.1268 53.7322 47.8755 53.7322 50.8044 50.8033Z" stroke="#FFD858" stroke-width="3"/>
</svg>
